<svg width="363" height="48" viewBox="0 0 363 48" fill="none" xmlns="http://www.w3.org/2000/svg">
<path d="M8.10673 0.594111C8.20864 0.730865 7.92714 1.11221 7.47818 1.44602C7.02922 1.77984 6.5825 1.93924 6.48047 1.80271C6.37844 1.66618 6.66005 1.28461 7.10902 0.950793C7.55798 0.616978 8.0047 0.457357 8.10673 0.594111Z" fill="white"/>
<path d="M7.58703 0.65261C7.58703 0.781686 7.54864 0.907858 7.47692 1.01518C7.40509 1.1225 7.30306 1.20615 7.18364 1.25554C7.06421 1.30494 6.93278 1.31786 6.80606 1.29268C6.67934 1.2675 6.56283 1.20534 6.47147 1.11408C6.3801 1.0228 6.31781 0.906524 6.29267 0.779926C6.26741 0.653327 6.28032 0.52211 6.32982 0.402865C6.37932 0.283619 6.46305 0.181692 6.57046 0.109986C6.67799 0.0382685 6.80426 5.58247e-09 6.93356 5.58247e-09C7.01932 -1.12038e-05 7.10428 0.0168587 7.18364 0.0496461C7.26288 0.0824335 7.33494 0.130511 7.39566 0.191108C7.45627 0.251718 7.50442 0.323659 7.53731 0.402842C7.57008 0.482037 7.58703 0.566903 7.58703 0.65261Z" fill="white"/>
<path d="M44.5953 0.70095C44.5953 0.830025 44.6337 0.956198 44.7054 1.06352C44.7773 1.17084 44.8793 1.25449 44.9987 1.30388C45.1182 1.35328 45.2496 1.3662 45.3763 1.34102C45.503 1.31584 45.6195 1.25368 45.7109 1.16242C45.8023 1.07114 45.8646 0.954865 45.8897 0.828266C45.915 0.701679 45.902 0.57045 45.8526 0.451205C45.8031 0.33196 45.7193 0.230033 45.6119 0.158326C45.5044 0.0866088 45.3781 0.0483398 45.2488 0.0483398C45.0755 0.0483735 44.9093 0.117132 44.7868 0.239516C44.6643 0.3619 44.5953 0.527877 44.5953 0.70095Z" fill="white"/>
<path d="M4.00044 32.3449L3.901 32.2936C3.86907 32.2753 3.84351 32.2476 3.82763 32.2143C3.81176 32.1811 3.80635 32.1438 3.8121 32.1075C3.8506 31.6087 3.85621 30.3588 3.08164 29.5256C2.30134 28.6865 2.26834 27.4519 2.23983 26.362C2.23388 26.1412 2.2286 25.9327 2.21738 25.7328C2.16968 24.9064 2.01535 24.8032 1.50431 24.4612C1.34998 24.358 1.15794 24.2295 0.936934 24.0571C-0.163028 23.2001 -0.062011 19.3565 0.0983815 18.0532C0.378984 15.7813 0.796745 14.2757 1.34067 13.5768C2.1488 12.539 2.52312 11.686 2.42581 11.5544C2.41602 11.5508 2.40571 11.5487 2.39528 11.5483C1.72464 11.4969 1.76561 10.8808 1.78525 10.5843C1.78851 10.536 1.79165 10.4919 1.79165 10.4544C1.79165 10.1682 2.30257 8.98285 2.45926 8.62628C3.63914 5.95015 7.0397 1.78138 7.07394 1.73957L7.24948 1.52502L7.35903 1.77959C9.54189 6.85665 11.1009 7.63324 12.3543 8.25782C12.4712 8.31611 12.5856 8.37317 12.6979 8.43202L12.859 8.51654L12.7622 8.67044C11.3805 10.8646 7.71057 13.5066 7.069 13.6402L7.01164 13.6521L7.02287 13.6611L7.08078 13.705C7.38204 13.9321 7.79453 14.2431 7.81798 15.1331C7.83864 15.9178 6.61061 17.5655 5.42298 19.1602C5.21264 19.4427 5.00893 19.716 4.82238 19.9717C3.84083 21.3169 4.07407 21.5712 4.46052 21.992C4.50115 22.0362 4.5429 22.0817 4.58499 22.1298C5.12375 22.7443 5.12296 22.8738 4.57523 24.9023C4.15994 26.4408 4.26522 26.8777 4.47511 27.7479C4.53527 27.9969 4.60329 28.2792 4.66929 28.6293C4.93866 30.0569 4.28172 32.1435 4.08709 32.2829L4.00044 32.3449ZM7.16126 2.16833C6.45223 3.05488 3.77607 6.47396 2.76635 8.76225C2.45903 9.46182 2.12725 10.3081 2.12725 10.4549C2.12725 10.4986 2.12388 10.5505 2.12018 10.6071C2.09291 11.0161 2.1286 11.1906 2.41998 11.2131C2.48666 11.2146 2.55154 11.2349 2.60715 11.2717C2.66276 11.3086 2.70682 11.3602 2.73425 11.421C2.98477 11.9867 1.74754 13.601 1.60567 13.7833C1.10664 14.424 0.700666 15.9148 0.431625 18.0944C0.3144 19.1706 0.301245 20.2557 0.39234 21.3345C0.506602 22.6309 0.773287 23.5037 1.14323 23.792C1.35458 23.9569 1.53327 24.0763 1.69074 24.1819C2.26317 24.5647 2.49742 24.7581 2.55264 25.7134C2.56454 25.9184 2.57015 26.1296 2.5761 26.3531C2.6036 27.383 2.6348 28.5502 3.32812 29.2968C3.86508 29.8743 4.06734 30.6186 4.13356 31.2299C4.31719 30.5349 4.49542 29.5218 4.33862 28.6909C4.2742 28.3492 4.20719 28.0714 4.14781 27.8261C3.93152 26.9294 3.81233 26.4362 4.25018 24.8142C4.77771 22.8601 4.7611 22.8413 4.33155 22.3508C4.29137 22.3049 4.2513 22.2611 4.21235 22.2188C3.71254 21.6748 3.46157 21.266 4.5502 19.7734C4.73742 19.5167 4.94181 19.2423 5.15282 18.9591C6.19812 17.5558 7.49866 15.8092 7.48137 15.1414C7.46218 14.4136 7.15183 14.1794 6.87797 13.973L6.81758 13.9272C6.7637 13.8858 6.71544 13.8532 6.67627 13.8263C6.57469 13.7577 6.46974 13.6869 6.49601 13.5538C6.52463 13.409 6.63485 13.3857 6.99986 13.31C7.49024 13.208 10.9395 10.7834 12.3762 8.64432C12.3192 8.61552 12.2615 8.58693 12.2032 8.5579C10.9235 7.92042 9.33526 7.12938 7.16126 2.16833Z" fill="white"/>
<path d="M9.30098 5.85963C9.30098 5.85963 9.96971 7.02821 9.14912 11.9912C7.78124 13.0536 7.56854 13.2054 7.56854 13.2054C7.56854 13.2054 8.08485 10.6859 8.02446 8.47007C7.96408 6.2542 7.06705 1.97424 7.06705 1.97424L7.20622 1.84937L9.30098 5.85963Z" fill="white"/>
<path d="M5.66177 3.87146C5.66177 3.87146 6.9384 7.74172 6.61919 13.5242C6.90888 13.7831 7.16883 14.0732 7.39432 14.3893C7.25211 14.2489 7.07949 14.1429 6.8898 14.0798C6.7 14.0166 6.4983 13.9979 6.30008 14.025C5.6162 14.1162 5.06914 14.4348 4.97789 13.1145C4.88663 11.7941 5.57063 8.51573 3.97495 6.28473C5.11471 4.50894 5.66177 3.87146 5.66177 3.87146Z" fill="white"/>
<path d="M2.70974 8.42627C2.70974 8.42627 3.75829 9.42794 3.98625 11.2036C4.2142 12.9793 4.07738 14.9372 5.49027 15.1194C6.90316 15.3015 7.65652 15.1418 7.65652 15.1418L6.8586 17.0314C6.8586 17.0314 4.94377 17.3957 4.21431 15.6654C3.48487 13.9351 3.89511 11.6594 2.41331 11.3858C1.75232 11.1581 1.96502 10.46 1.96502 10.46L2.70974 8.42627Z" fill="white"/>
<path d="M2.20021 12.6566C2.20021 12.6566 3.0208 13.203 3.20319 15.4796C3.38558 17.7562 5.6651 18.5301 5.6651 18.5301L4.38858 20.3059C4.38858 20.3059 3.24876 19.2131 2.97523 18.2114C2.7017 17.2098 2.79284 15.0698 0.78653 15.2521C0.969146 14.3868 1.88099 13.1125 2.20021 12.6566Z" fill="white"/>
<path d="M0.471384 16.3903C0.471384 16.3903 1.61119 17.8475 2.11268 18.9856C2.61418 20.1237 4.1643 22.0362 4.1643 22.0362L4.75694 22.6282L4.80262 23.4022C4.80262 23.4022 4.11873 22.9924 3.48045 22.5827C2.84214 22.173 2.52304 21.6265 2.11268 21.0806C1.70233 20.5347 1.15527 20.0334 0.152283 19.5326C0.194676 18.4797 0.301238 17.4303 0.471384 16.3903Z" fill="white"/>
<path d="M0.192902 20.8553C0.192902 20.8553 1.28714 22.358 1.69693 22.5856C2.10672 22.8133 3.47505 23.223 3.83984 23.906C4.20467 24.589 4.43252 25.0443 4.43252 25.0443L4.11341 26.6834C4.11341 26.6834 3.70302 25.363 3.0647 24.9533C2.42639 24.5436 0.876 23.9971 0.693945 23.5873C0.51189 23.1775 0.192902 20.8553 0.192902 20.8553Z" fill="white"/>
<path d="M2.29112 25.5894C2.29112 25.5894 3.06615 26.8643 3.4765 27.4107C3.88685 27.957 4.57073 29.0498 4.57073 29.0498L4.4339 30.5978C4.4339 30.5978 4.34277 29.4596 3.7956 29.0958C3.24843 28.7319 2.47351 28.3672 2.47351 28.1851C2.47351 28.0031 2.29112 25.5894 2.29112 25.5894Z" fill="white"/>
<path d="M26.1394 35.7456C23.7403 35.7456 21.3952 35.0352 19.4004 33.7042C17.4057 32.3731 15.851 30.4811 14.9329 28.2676C14.0147 26.0541 13.7745 23.6184 14.2426 21.2685C14.7105 18.9187 15.8658 16.7602 17.5622 15.066C19.2585 13.3718 21.4198 12.2182 23.7729 11.7507C26.1258 11.2833 28.5647 11.5232 30.7811 12.44C32.9975 13.3569 34.892 14.9095 36.2248 16.9017C37.5576 18.8938 38.269 21.2359 38.269 23.6318C38.2654 26.8435 36.9863 29.9225 34.7123 32.1935C32.4383 34.4645 29.3553 35.7419 26.1394 35.7456ZM26.1394 12.1906C23.8735 12.1906 21.6586 12.8616 19.7745 14.1187C17.8905 15.376 16.4222 17.1628 15.555 19.2534C14.688 21.344 14.461 23.6446 14.903 25.8639C15.3451 28.0833 16.4362 30.122 18.0385 31.7221C19.6406 33.3222 21.6819 34.4119 23.9043 34.8534C26.1266 35.2948 28.4301 35.0682 30.5235 34.2022C32.6169 33.3363 34.4061 31.8698 35.6649 29.9883C36.9237 28.1068 37.5957 25.8946 37.5956 23.6318C37.5922 20.5984 36.384 17.6904 34.2363 15.5454C32.0887 13.4005 29.1767 12.1941 26.1394 12.1906Z" fill="white"/>
<path d="M26.1665 34.6029C23.9995 34.6029 21.8812 33.9612 20.0794 32.7589C18.2775 31.5565 16.8733 29.8476 16.044 27.8482C15.2147 25.8487 14.9978 23.6486 15.4206 21.526C15.8433 19.4035 16.8869 17.4537 18.4192 15.9234C19.9515 14.3932 21.9037 13.3511 24.0291 12.9288C26.1545 12.5067 28.3575 12.7234 30.3595 13.5516C32.3616 14.3799 34.0728 15.7824 35.2767 17.5819C36.4806 19.3813 37.123 21.4968 37.123 23.661C37.1197 26.562 35.9643 29.3433 33.9103 31.3945C31.8562 33.4458 29.0713 34.5997 26.1665 34.6029ZM26.1665 12.9429C24.0439 12.9429 21.969 13.5715 20.2042 14.7491C18.4393 15.9268 17.0637 17.6007 16.2514 19.5592C15.4391 21.5176 15.2266 23.6726 15.6407 25.7517C16.0547 27.8308 17.0769 29.7405 18.5777 31.2395C20.0786 32.7384 21.9908 33.7592 24.0727 34.1727C26.1544 34.5864 28.3123 34.3742 30.2733 33.5629C32.2344 32.7518 33.9105 31.3781 35.0898 29.6156C36.269 27.853 36.8985 25.7808 36.8986 23.661C36.8954 20.8193 35.7637 18.095 33.7518 16.0857C31.7397 14.0763 29.0118 12.9461 26.1665 12.9429Z" fill="white"/>
<path d="M50.8183 34.1219L50.5041 34.0171C50.5119 33.9653 51.2709 28.8129 50.0382 26.6584C49.535 25.7791 48.8647 24.9234 48.2166 24.0959C47.2168 22.8195 46.3534 21.7172 46.3534 20.838C46.3684 20.2345 46.4475 19.6342 46.5891 19.0473C46.7077 18.4814 46.8101 17.9924 46.722 17.5962C46.6696 17.3682 46.6055 17.1431 46.5297 16.9218C46.3916 16.4975 46.2349 16.0169 46.0808 14.8497C45.8381 13.0073 45.6907 12.2579 44.4645 12.2185C42.9836 12.1707 42.0546 11.8322 39.3741 8.7922L39.2261 8.62406L39.4287 8.52878C39.4518 8.51757 41.7582 7.41715 42.9932 5.59664C44.9341 2.73522 45.0306 1.84788 45.0314 1.83925L45.0747 1.33887L45.342 1.76157C45.9884 2.79183 47.8786 5.473 48.8527 5.50763L48.8678 5.50819C50.2372 5.55695 50.5065 5.63273 50.8818 7.74065C50.9603 8.18051 51.0473 8.73716 51.1484 9.38182C51.5188 11.745 52.0267 14.9815 52.7071 16.4254C53.1796 17.4281 52.746 18.8849 52.3787 19.8934L52.3664 19.927C51.5055 22.2402 52.2049 23.7559 52.546 24.3004C53.3462 25.5792 53.2957 27.6262 52.3957 30.3844C51.9689 31.6696 51.4415 32.9194 50.8183 34.1219ZM39.7717 8.73347C42.2634 11.5364 43.092 11.8378 44.4755 11.8824C46.0365 11.9326 46.1872 13.0756 46.4151 14.806C46.5649 15.9422 46.7164 16.4074 46.8501 16.8178C46.9292 17.0492 46.9962 17.2848 47.0507 17.5233C47.1547 17.9903 47.0454 18.5121 46.9189 19.1163C46.7823 19.6805 46.7056 20.2577 46.69 20.838C46.69 21.6013 47.5603 22.7123 48.4817 23.8887C49.1373 24.7257 49.8152 25.591 50.3304 26.4916C51.2931 28.1739 51.1198 31.4404 50.9559 33.0821C51.8406 31.1856 53.6556 26.7084 52.2602 24.4786C51.8932 23.892 51.1378 22.263 52.051 19.8099L52.0622 19.7788C52.262 19.2303 52.8703 17.561 52.4024 16.5689C51.7016 15.0814 51.1895 11.8174 50.8158 9.43416C50.7147 8.79131 50.6279 8.23622 50.5502 7.79995C50.2107 5.89279 50.0825 5.88819 48.8554 5.84459H48.8402C48.2591 5.82396 47.4421 5.15319 46.4118 3.85134C45.9256 3.23729 45.5026 2.61987 45.2632 2.25961C45.0836 2.77064 44.5967 3.8325 43.2715 5.78619C42.1873 7.38431 40.3749 8.41904 39.7717 8.73347Z" fill="white"/>
<path d="M42.5594 6.46716C42.7895 6.83897 43.2595 7.36592 43.7527 7.1831C43.9142 7.11988 44.052 7.00801 44.147 6.86296C44.2418 6.71791 44.2891 6.54692 44.2821 6.37378C44.2545 6.08735 44.1476 5.81426 43.9733 5.58509C43.8687 5.43211 43.7494 5.28967 43.6172 5.15981C43.5698 5.11252 43.5056 5.08594 43.4386 5.08594C43.3716 5.08594 43.3074 5.11252 43.26 5.15981C43.2127 5.20711 43.1861 5.27126 43.1861 5.33815C43.1861 5.40505 43.2127 5.4692 43.26 5.51649C43.3416 5.59742 43.4182 5.68325 43.4894 5.77352C43.5212 5.81242 43.4528 5.72364 43.4828 5.76523C43.491 5.77644 43.4997 5.78764 43.5079 5.79885C43.5221 5.81829 43.5362 5.83791 43.5497 5.8577C43.584 5.90736 43.6164 5.95859 43.6463 6.0106C43.6786 6.0573 43.7044 6.10822 43.7229 6.16193C43.7221 6.15823 43.7005 6.10375 43.7153 6.14421C43.7206 6.15856 43.7265 6.17269 43.7316 6.18715C43.7418 6.21562 43.7509 6.24454 43.7586 6.27379C43.7634 6.29184 43.7844 6.34352 43.7774 6.361C43.7817 6.34979 43.7727 6.30238 43.7742 6.33746C43.7742 6.35204 43.7768 6.3665 43.7774 6.38096C43.7786 6.40752 43.7774 6.43364 43.7761 6.46009C43.7746 6.50852 43.7838 6.44889 43.7792 6.44283C43.7841 6.44922 43.7691 6.49103 43.7669 6.49888C43.7637 6.51009 43.7594 6.5213 43.7557 6.5334C43.7457 6.56759 43.7636 6.55347 43.762 6.52085C43.763 6.54114 43.7312 6.5769 43.7212 6.59371C43.6955 6.63855 43.7255 6.58429 43.728 6.58755C43.718 6.60075 43.707 6.61323 43.6952 6.62487C43.6833 6.63743 43.671 6.64953 43.6582 6.66119C43.6469 6.67128 43.602 6.70345 43.6526 6.66837C43.6392 6.67767 43.626 6.68664 43.6121 6.69538L43.5986 6.703C43.5742 6.715 43.5807 6.71287 43.618 6.69661C43.5963 6.70693 43.5731 6.71343 43.5493 6.71589C43.5448 6.70917 43.6216 6.71589 43.5613 6.71208C43.5521 6.7113 43.5429 6.71107 43.5337 6.71152C43.4854 6.71634 43.5925 6.72834 43.5459 6.71365C43.5284 6.70805 43.5092 6.70412 43.4914 6.69953C43.4268 6.68294 43.5312 6.72464 43.4712 6.69213C43.4469 6.67901 43.4228 6.66646 43.3995 6.65166C43.375 6.63776 43.3517 6.62162 43.3302 6.60346C43.3888 6.65805 43.3112 6.58553 43.2976 6.5732C43.2492 6.52895 43.2031 6.48199 43.1599 6.43252C43.1414 6.41156 43.1234 6.39015 43.1058 6.36851C43.0985 6.3577 43.0903 6.34751 43.0814 6.33803C43.088 6.3369 43.121 6.3906 43.0912 6.35047C43.0576 6.30563 43.0246 6.26012 42.9952 6.21248C42.9614 6.15472 42.9059 6.11273 42.8412 6.09576C42.7764 6.07879 42.7075 6.08821 42.6496 6.12196C42.5918 6.15573 42.5498 6.21104 42.5327 6.27577C42.5158 6.34048 42.5252 6.40928 42.559 6.46705L42.5594 6.46716Z" fill="white"/>
<path d="M45.8967 7.68692C45.7401 7.46015 45.5571 7.25255 45.3518 7.06861C45.2545 6.9712 45.1255 6.91179 44.9881 6.90114C44.8822 6.90058 44.7769 6.91526 44.6754 6.94452C44.5097 6.9898 44.3647 7.09069 44.2649 7.23025C44.2107 7.32026 44.1753 7.42036 44.161 7.52438C44.1466 7.6284 44.1536 7.73422 44.1813 7.83555C44.242 8.07812 44.3695 8.29895 44.5495 8.4728C44.7072 8.64532 44.912 8.76806 45.1386 8.82612C45.2673 8.85213 45.4007 8.84294 45.5246 8.79956C45.6486 8.75618 45.7585 8.68007 45.8428 8.57952C46.056 8.31341 46.0395 7.98251 45.8967 7.68692C45.8625 7.62941 45.8071 7.58771 45.7424 7.57079C45.6778 7.55386 45.609 7.56305 45.5511 7.59646C45.4945 7.63143 45.4536 7.68669 45.4367 7.75092C45.4199 7.81515 45.4284 7.88342 45.4605 7.94159C45.4637 7.94821 45.4809 7.98643 45.4649 7.94753C45.4692 7.95818 45.4731 7.96906 45.4768 7.97993C45.4852 8.00414 45.4924 8.0288 45.4982 8.0538C45.504 8.07947 45.5017 8.11164 45.502 8.06759C45.502 8.09292 45.5031 8.11881 45.5036 8.14426C45.5036 8.18909 45.5172 8.0983 45.5016 8.15805C45.496 8.17452 45.4912 8.19134 45.4874 8.20838C45.4828 8.24032 45.5106 8.16813 45.4936 8.19548C45.4892 8.20243 45.4862 8.21073 45.4824 8.2179C45.4786 8.22508 45.4737 8.23214 45.4697 8.23942C45.444 8.28572 45.4767 8.23943 45.4755 8.23573C45.4772 8.24055 45.4464 8.26823 45.4419 8.27238C45.4435 8.2707 45.4185 8.29536 45.4175 8.2948C45.4146 8.29278 45.4614 8.26767 45.436 8.28079C45.4191 8.28964 45.4037 8.30253 45.3868 8.31184C45.3797 8.31576 45.3711 8.31879 45.3643 8.32305C45.3405 8.33885 45.4204 8.30567 45.3699 8.32036C45.3534 8.32518 45.3373 8.33078 45.3205 8.33493C45.3163 8.33594 45.2869 8.34165 45.2869 8.34199C45.2875 8.33773 45.3399 8.34087 45.3158 8.33796C45.2991 8.33695 45.2824 8.33695 45.2656 8.33796C45.2266 8.33796 45.3201 8.35118 45.2656 8.33796C45.2473 8.33336 45.2292 8.32921 45.2112 8.32361C45.2016 8.32058 45.1428 8.29637 45.1775 8.3124C45.2122 8.32843 45.1598 8.30309 45.1515 8.29884C45.1296 8.28751 45.1082 8.27541 45.0872 8.26252C45.0681 8.25131 45.0495 8.23853 45.0311 8.22564C45.0127 8.21275 44.9869 8.18954 45.0198 8.21779C44.9816 8.18416 44.9429 8.15199 44.9076 8.11567C44.8761 8.08373 44.8469 8.04988 44.8178 8.01546C44.8492 8.05324 44.8116 8.00638 44.8016 7.99203C44.7859 7.96962 44.7712 7.94664 44.7573 7.92298C44.735 7.88543 44.7149 7.84654 44.6971 7.80663C44.7176 7.85147 44.6978 7.80495 44.6911 7.78421C44.6843 7.76348 44.6781 7.74128 44.6729 7.71942C44.671 7.71135 44.6551 7.64096 44.6637 7.67873C44.6717 7.71359 44.662 7.65631 44.6614 7.64286C44.6607 7.62694 44.6606 7.61092 44.6614 7.59489C44.6614 7.5848 44.6628 7.57482 44.6632 7.56473C44.6646 7.52662 44.6646 7.58513 44.6597 7.58917C44.6662 7.5839 44.6674 7.55296 44.6702 7.54321C44.6796 7.51026 44.6988 7.50757 44.6639 7.55016C44.681 7.52864 44.6949 7.50487 44.7053 7.47943C44.7019 7.50185 44.6625 7.52584 44.6985 7.49221C44.7065 7.48481 44.7147 7.4773 44.7224 7.46979C44.7578 7.43437 44.6786 7.49647 44.7098 7.47943C44.7222 7.47259 44.7337 7.46374 44.7461 7.45701C44.7554 7.45174 44.7649 7.44726 44.7744 7.44221C44.8193 7.41834 44.7491 7.45107 44.7572 7.44872C44.7817 7.44165 44.8051 7.43168 44.8298 7.42518C44.85 7.4198 44.8704 7.4152 44.8909 7.4115C44.9011 7.4096 44.9123 7.40903 44.9222 7.40623C44.9059 7.41083 44.8492 7.41419 44.8928 7.41049C44.9233 7.40791 44.9537 7.40534 44.9844 7.40522C45.0428 7.40522 44.9956 7.40623 44.9629 7.40007C45.0022 7.40758 44.9149 7.37182 44.9405 7.39054C44.9488 7.39648 44.959 7.40074 44.9678 7.40612C44.979 7.41318 44.9902 7.42193 45.0014 7.42854C45.0221 7.44109 44.9737 7.40612 44.9753 7.40803C44.9831 7.41576 44.9917 7.42282 45.0009 7.42899C45.1193 7.53335 45.2282 7.64802 45.3264 7.77155C45.3674 7.82087 45.4074 7.8712 45.4472 7.92164C45.4686 7.94865 45.4037 7.86458 45.4337 7.90426C45.4387 7.91088 45.4438 7.91738 45.4487 7.92399C45.4536 7.93061 45.4572 7.9352 45.4614 7.94092C45.4963 7.99742 45.5517 8.03833 45.6161 8.05514C45.6804 8.07196 45.7487 8.06344 45.807 8.03138C45.8639 7.99697 45.9051 7.9417 45.9219 7.87736C45.9386 7.81302 45.9295 7.74464 45.8967 7.68692Z" fill="white"/>
<path d="M47.7917 9.33725C47.648 9.11777 47.4876 8.90972 47.312 8.71468C47.2258 8.61167 47.1108 8.53668 46.9817 8.49912C46.8468 8.46583 46.7058 8.46628 46.571 8.50047C46.4891 8.52143 46.4121 8.55865 46.3449 8.60998C46.2776 8.66132 46.2214 8.72578 46.1796 8.79931C46.0818 9.0003 46.0597 9.22975 46.1176 9.44564C46.1789 9.67532 46.2981 9.88561 46.4636 10.0563C46.6049 10.2193 46.7912 10.337 46.9992 10.3946C47.1227 10.4215 47.251 10.4164 47.3719 10.3795C47.4926 10.3427 47.602 10.2755 47.6893 10.1843C47.7813 10.0777 47.8419 9.94782 47.8645 9.80894C47.8871 9.67006 47.8707 9.5277 47.8171 9.39756C47.7982 9.33389 47.7552 9.27997 47.6973 9.24713C47.6395 9.21428 47.5711 9.20509 47.5065 9.22134C47.4424 9.23984 47.388 9.28266 47.355 9.34061C47.322 9.39856 47.3132 9.46717 47.3301 9.53162C47.3458 9.57657 47.3589 9.6223 47.3693 9.66871C47.3765 9.69729 47.3673 9.65436 47.3672 9.65122C47.3672 9.66086 47.3687 9.6705 47.3692 9.68014C47.3702 9.70458 47.366 9.72958 47.3674 9.75379C47.369 9.78405 47.3666 9.72868 47.3702 9.73025C47.3688 9.73866 47.3669 9.74706 47.3646 9.75525C47.3601 9.7743 47.3541 9.79302 47.3468 9.81129C47.3418 9.80995 47.3725 9.76578 47.3555 9.78798C47.3484 9.80233 47.3403 9.81611 47.3314 9.82934C47.3209 9.85366 47.3711 9.7873 47.3374 9.82228C47.3262 9.83349 47.3162 9.84537 47.3046 9.85591C47.2989 9.86117 47.2923 9.86588 47.2868 9.87138C47.2682 9.89009 47.305 9.85445 47.3067 9.8558C47.3054 9.85479 47.2652 9.88079 47.2593 9.88449C47.212 9.91285 47.2918 9.87664 47.2535 9.88796C47.2352 9.89346 47.2173 9.89918 47.1987 9.90388C47.1906 9.90579 47.1824 9.90713 47.1744 9.90904C47.1465 9.91532 47.1722 9.91386 47.1744 9.90904C47.1802 9.89962 47.2021 9.90792 47.1744 9.90781C47.1665 9.90781 47.1585 9.90859 47.1505 9.90859C47.1413 9.90769 47.1321 9.90747 47.1228 9.90769C47.0963 9.91083 47.1739 9.9189 47.1474 9.91117C47.1362 9.90803 47.0548 9.88102 47.052 9.88326C47.0541 9.88158 47.098 9.90635 47.0744 9.89256C47.0675 9.8883 47.0593 9.88528 47.052 9.88135C47.0314 9.87093 47.0114 9.85893 46.9918 9.84772C46.9767 9.8382 46.9621 9.82777 46.9469 9.81791C46.9075 9.7919 46.976 9.84335 46.9392 9.81241C46.9046 9.78372 46.8715 9.75334 46.84 9.72128C46.8239 9.7048 46.8083 9.68799 46.7932 9.67062C46.7871 9.66367 46.7493 9.6195 46.7685 9.64237C46.7877 9.66524 46.7668 9.64024 46.7639 9.6362C46.756 9.62499 46.7482 9.61457 46.7405 9.60358C46.7273 9.58442 46.7146 9.56491 46.7025 9.54485C46.68 9.50819 46.6604 9.4703 46.6415 9.43174C46.6201 9.38792 46.6527 9.46537 46.6368 9.42053C46.6284 9.39655 46.6199 9.37267 46.6129 9.34823C46.608 9.3303 46.6035 9.31214 46.5995 9.29387C46.5976 9.28501 46.5967 9.27549 46.5944 9.26674C46.5866 9.23827 46.5998 9.28782 46.5972 9.28916C46.5982 9.28916 46.5919 9.16754 46.5925 9.15465C46.5925 9.14557 46.5938 9.07764 46.5942 9.12102C46.5942 9.15992 46.5965 9.11429 46.5995 9.10163C46.6035 9.08537 46.6091 9.06979 46.6136 9.05376C46.6248 9.01632 46.5854 9.10353 46.6117 9.0597C46.619 9.0476 46.6269 9.03504 46.6341 9.0226C46.6525 8.98897 46.5958 9.06206 46.6229 9.03661C46.6311 9.02899 46.6388 9.02036 46.6467 9.01229C46.6847 8.97317 46.613 9.03056 46.6386 9.01756C46.6481 9.01274 46.6568 9.00635 46.6662 9.00063C46.6756 8.99491 46.7204 8.97563 46.6744 8.9948C46.6301 9.01341 46.6681 8.99749 46.679 8.9948C46.6925 8.9911 46.7057 8.98684 46.7194 8.98359C46.7297 8.98214 46.7401 8.98012 46.7501 8.97754C46.764 8.97261 46.6798 8.98315 46.7238 8.98135C46.7471 8.98045 46.7701 8.97866 46.7936 8.97933C46.8048 8.97933 46.8161 8.98068 46.8273 8.98124C46.8694 8.98326 46.8093 8.98124 46.7965 8.97642C46.8145 8.9827 46.8357 8.98303 46.8543 8.98763C46.8688 8.99379 46.8838 8.99861 46.8992 9.00186C46.907 9.00186 46.8396 8.96824 46.8611 8.98628C46.8694 8.99267 46.8784 8.99805 46.8877 9.00254C46.8973 9.00691 46.8365 8.9577 46.8672 8.98673C46.8766 8.9957 46.8868 9.00377 46.8962 9.01263C46.9164 9.03157 46.9356 9.05141 46.9544 9.07159C47.0056 9.1264 47.0534 9.18368 47.1004 9.24275C47.1086 9.25295 47.1476 9.30429 47.1244 9.27291C47.1011 9.24152 47.1356 9.28838 47.1425 9.29678C47.1649 9.32671 47.1871 9.35653 47.209 9.38646C47.2588 9.45439 47.3079 9.52288 47.3549 9.5926C47.3714 9.62174 47.3935 9.6473 47.42 9.66793C47.4464 9.68844 47.4767 9.70357 47.5091 9.7122C47.5415 9.72095 47.5753 9.72319 47.6085 9.71882C47.6417 9.71433 47.6737 9.70346 47.7025 9.68653C47.7315 9.66961 47.7567 9.64719 47.7769 9.6204C47.7972 9.59361 47.8117 9.56323 47.8199 9.53072C47.8282 9.49833 47.8299 9.46459 47.825 9.43141C47.8201 9.39834 47.8085 9.36651 47.7911 9.33792L47.7917 9.33725Z" fill="white"/>
<path d="M48.9319 11.6233C48.8807 11.3879 48.8236 11.1525 48.7494 10.9235C48.7147 10.7838 48.6494 10.6535 48.5579 10.5423C48.4653 10.4418 48.3433 10.373 48.2093 10.3457C47.7186 10.2639 47.4797 10.8305 47.4941 11.2369C47.5023 11.4466 47.5454 11.6534 47.6218 11.8489C47.6826 12.0364 47.7883 12.2064 47.9296 12.3441C48.0217 12.4262 48.1378 12.4766 48.2607 12.488C48.3836 12.4994 48.5069 12.4713 48.6127 12.4076C48.8514 12.2507 48.927 11.9592 48.941 11.6902C48.9405 11.6234 48.9138 11.5595 48.8665 11.5123C48.8192 11.4651 48.7552 11.4384 48.6884 11.438C48.6219 11.4394 48.5585 11.4664 48.5114 11.5134C48.4644 11.5604 48.4374 11.6237 48.4359 11.6902C48.4347 11.7137 48.4329 11.7371 48.4308 11.7606C48.4308 11.7649 48.4247 11.8017 48.4297 11.7718C48.4352 11.7394 48.427 11.7837 48.4255 11.7913C48.4172 11.8334 48.4012 11.8729 48.3918 11.9146C48.4007 11.8774 48.403 11.8922 48.3888 11.9191C48.3801 11.9359 48.3675 11.9515 48.3596 11.9684C48.3483 11.9908 48.372 11.9492 48.3758 11.9486C48.3725 11.9486 48.3638 11.9628 48.361 11.9655C48.3559 11.9704 48.3498 11.9758 48.3457 11.9812C48.3206 12.0102 48.3583 11.965 48.3639 11.9691C48.3639 11.9691 48.3316 11.989 48.3288 11.9915C48.2966 12.0139 48.3849 11.9728 48.3322 11.9886C48.3256 11.9905 48.3189 11.9921 48.3122 11.9933C48.3106 11.9881 48.3712 11.9924 48.3449 11.9888C48.3412 11.9888 48.2946 11.9888 48.2946 11.9888C48.2965 11.9829 48.358 12.0018 48.3014 11.9873C48.2881 11.9839 48.2275 11.9621 48.2747 11.9805C48.3179 11.9973 48.2811 11.9805 48.2702 11.9748C48.228 11.9511 48.3029 12.0084 48.2775 11.981C48.2572 11.9594 48.2367 11.9371 48.216 11.9161C48.1986 11.8983 48.2327 11.9363 48.2326 11.9376C48.2326 11.9338 48.2214 11.9219 48.2192 11.9186C48.2089 11.9028 48.1984 11.8875 48.1886 11.8714C48.1692 11.8396 48.1516 11.8069 48.1352 11.7735C48.1273 11.7573 48.1206 11.7405 48.1128 11.7246C48.0998 11.6996 48.1196 11.7413 48.12 11.7425C48.1156 11.7313 48.1107 11.7194 48.1062 11.7079C48.0764 11.6302 48.0518 11.5505 48.0329 11.4695C48.0234 11.4289 48.0157 11.388 48.0087 11.3468C48.0067 11.3375 48.0052 11.3281 48.0044 11.3187C48.0044 11.3195 48.0089 11.3684 48.0076 11.3391C48.0067 11.3177 48.0032 11.2962 48.0019 11.2748C47.9994 11.2364 47.9985 11.198 47.9997 11.1595C47.9997 11.1426 48.0016 11.1259 48.0028 11.109C48.0065 11.0502 47.9941 11.1443 48.0028 11.1039C48.0106 11.0666 48.0205 11.0298 48.0326 10.9937C48.0363 10.9831 48.0596 10.9265 48.0497 10.9473C48.0398 10.9682 48.0673 10.9137 48.0732 10.9033C48.0835 10.885 48.0964 10.8684 48.1069 10.8504C48.1206 10.8266 48.0947 10.87 48.0922 10.8695C48.0938 10.8695 48.1056 10.8545 48.1074 10.853C48.1153 10.8457 48.1523 10.8141 48.1177 10.8404C48.0831 10.8667 48.1251 10.8391 48.134 10.8329C48.1652 10.8114 48.0728 10.8545 48.1212 10.84C48.1629 10.8274 48.0845 10.8399 48.0961 10.8419C48.1065 10.8432 48.117 10.8432 48.1273 10.8419C48.1454 10.8384 48.0872 10.8361 48.0859 10.8356C48.0926 10.8374 48.0993 10.8387 48.1061 10.8395C48.1174 10.8435 48.1289 10.847 48.1406 10.8497C48.1536 10.8518 48.081 10.8192 48.1181 10.8403C48.1371 10.8515 48.1559 10.8616 48.1743 10.8732C48.2148 10.8988 48.1493 10.8514 48.1574 10.8598C48.1635 10.8662 48.1712 10.8716 48.1779 10.8776C48.1908 10.8888 48.2016 10.9033 48.2144 10.9152C48.2388 10.9376 48.1771 10.8531 48.194 10.8889C48.1974 10.8961 48.2025 10.9031 48.2065 10.91C48.2104 10.917 48.2149 10.9269 48.2193 10.9355C48.2378 10.9719 48.221 10.9478 48.2135 10.9203C48.2287 10.9764 48.2547 11.0319 48.2724 11.0877C48.3415 11.3081 48.3966 11.5335 48.4458 11.759C48.464 11.8232 48.5068 11.8777 48.565 11.9107C48.623 11.9437 48.6918 11.9525 48.7565 11.9352C48.8204 11.9159 48.8744 11.8728 48.9072 11.8146C48.9399 11.7564 48.9487 11.6878 48.9319 11.6233Z" fill="white"/>
<path d="M49.7567 14.4465C49.7273 14.1867 49.6919 13.9269 49.6481 13.6692C49.6024 13.4018 49.5651 13.0015 49.2526 12.9105C48.7795 12.7726 48.6441 13.4149 48.6129 13.742C48.5964 13.9242 48.5931 14.1074 48.6033 14.2901C48.6061 14.5112 48.6432 14.7305 48.7132 14.9403C48.7494 15.0723 48.8329 15.1864 48.9478 15.261C49.0124 15.2937 49.0845 15.3088 49.1568 15.3049C49.2291 15.301 49.2991 15.2781 49.3597 15.2385C49.6217 15.0758 49.7391 14.7397 49.7566 14.4472C49.7566 14.3802 49.73 14.3161 49.6826 14.2688C49.6353 14.2215 49.5711 14.195 49.5041 14.195C49.4371 14.195 49.3728 14.2215 49.3255 14.2688C49.2781 14.3161 49.2515 14.3802 49.2515 14.4472C49.2515 14.4465 49.2415 14.5337 49.2489 14.4875C49.2447 14.5136 49.2389 14.5395 49.232 14.5651C49.2254 14.5902 49.2169 14.6144 49.209 14.639C49.1865 14.7096 49.2302 14.6069 49.1955 14.67C49.1769 14.7036 49.1585 14.7373 49.1368 14.7692C49.1672 14.7244 49.1304 14.7758 49.1236 14.783C49.1147 14.7924 49.1055 14.8013 49.096 14.8099C49.1237 14.7901 49.1267 14.7875 49.1048 14.8029L49.0906 14.8116C49.071 14.8214 49.0717 14.8214 49.0925 14.8116L49.1085 14.8045C49.0816 14.8111 49.0901 14.8107 49.1341 14.8029C49.0961 14.8054 49.1851 14.8149 49.1965 14.822L49.2238 14.8444C49.2057 14.8262 49.208 14.8307 49.2305 14.8584C49.2152 14.8331 49.2012 14.8069 49.1889 14.78C49.2165 14.8406 49.191 14.781 49.1871 14.7693C49.1784 14.7438 49.1708 14.7178 49.164 14.6916C49.1539 14.6535 49.1457 14.615 49.1384 14.5762C49.135 14.5579 49.1323 14.5395 49.1289 14.5213C49.1159 14.4476 49.1337 14.573 49.1257 14.4979C49.1158 14.4058 49.1086 14.3139 49.1056 14.2213C49.1001 14.0709 49.1034 13.9202 49.1154 13.7702C49.1175 13.7449 49.1231 13.7183 49.1232 13.6929C49.1232 13.7979 49.1223 13.7023 49.1267 13.6765C49.1315 13.6479 49.137 13.6195 49.143 13.591C49.1517 13.5506 49.1617 13.5105 49.1741 13.471C49.1804 13.451 49.1878 13.4315 49.1946 13.4116C49.1732 13.4734 49.1982 13.406 49.2058 13.3924C49.2128 13.3823 49.2193 13.372 49.2251 13.3612C49.2377 13.3319 49.1833 13.4093 49.2134 13.3771C49.2299 13.3595 49.2583 13.3471 49.1946 13.3883C49.2171 13.3738 49.236 13.3748 49.1667 13.3965C49.2185 13.3803 49.0962 13.3955 49.1474 13.3981C49.0647 13.3939 49.0867 13.3869 49.1108 13.3945C49.1457 13.4049 49.0424 13.3584 49.0863 13.3855C49.1187 13.4057 49.0323 13.34 49.0613 13.3656C49.0665 13.3701 49.0715 13.3748 49.0761 13.3799C49.1066 13.4143 49.034 13.3154 49.0649 13.3675C49.0896 13.4093 49.0424 13.2981 49.0649 13.3693C49.0724 13.3933 49.0799 13.4172 49.0864 13.4415C49.1201 13.5663 49.1425 13.6945 49.1642 13.8218C49.1776 13.9015 49.19 13.9813 49.2016 14.0612C49.2075 14.1017 49.2128 14.1422 49.2187 14.1826C49.221 14.1989 49.2327 14.256 49.2187 14.18C49.2214 14.195 49.2227 14.2103 49.2247 14.2249C49.2343 14.2985 49.2437 14.3723 49.252 14.4462C49.2539 14.5124 49.2811 14.5755 49.3281 14.6224C49.375 14.6692 49.4382 14.6965 49.5045 14.6984C49.5713 14.6979 49.6352 14.6711 49.6823 14.624C49.7296 14.577 49.7563 14.5132 49.7567 14.4465Z" fill="white"/>
<path d="M43.5112 6.70062C43.7286 6.9924 43.9833 7.25458 44.2686 7.48045C44.3765 7.568 44.4944 7.64232 44.62 7.70173C44.6796 7.7339 44.7489 7.74286 44.8147 7.72717C44.8626 7.71406 44.9056 7.68704 44.9382 7.6496C44.9708 7.61216 44.9917 7.56598 44.9981 7.51677C45.0046 7.46756 44.9963 7.41746 44.9744 7.37295C44.9525 7.32845 44.918 7.29124 44.875 7.26624C44.8124 7.23811 44.7521 7.20515 44.6944 7.16782C44.6639 7.14821 44.634 7.12758 44.6047 7.10628C44.5896 7.09507 44.5753 7.08387 44.5598 7.07266C44.6256 7.11906 44.57 7.08017 44.5559 7.06884C44.4427 6.97592 44.3353 6.87627 44.2342 6.77023C44.1533 6.68627 44.0756 6.59962 44.0008 6.51017C43.9784 6.48296 43.9559 6.45547 43.9335 6.42767C43.9272 6.41993 43.9211 6.41197 43.9148 6.40424C43.8953 6.37936 43.9648 6.46903 43.9469 6.4456C43.9119 6.39037 43.8585 6.34931 43.796 6.3297C43.7303 6.31226 43.6604 6.3214 43.6013 6.35514C43.5441 6.38935 43.5025 6.44466 43.4855 6.50917C43.4686 6.57369 43.4776 6.64222 43.5108 6.70017L43.5112 6.70062Z" fill="white"/>
<path d="M45.3836 8.52356C45.7894 8.77184 46.1938 9.02518 46.584 9.29756C46.6419 9.33097 46.7106 9.34027 46.7753 9.32335C46.8401 9.30642 46.8954 9.26461 46.9294 9.2071C46.9615 9.14893 46.9701 9.08066 46.9532 9.01643C46.9364 8.9522 46.8954 8.89694 46.8389 8.86197C46.4486 8.58969 46.0443 8.33625 45.638 8.08796C45.6093 8.07126 45.5776 8.06027 45.5448 8.05579C45.512 8.05131 45.4785 8.05332 45.4464 8.06173C45.4143 8.07014 45.3842 8.08482 45.3577 8.10478C45.3314 8.12484 45.3091 8.14984 45.2924 8.17842C45.2757 8.20712 45.2647 8.23873 45.2602 8.27146C45.2557 8.3043 45.2577 8.33771 45.2661 8.36976C45.2746 8.40182 45.2893 8.43186 45.3092 8.45832C45.3293 8.48466 45.3544 8.50686 45.3831 8.52356H45.3836Z" fill="white"/>
<path d="M47.112 9.95399C47.2048 10.0499 47.2915 10.1525 47.3754 10.2561C47.3949 10.2801 47.4143 10.3042 47.4334 10.3285C47.4427 10.3397 47.4518 10.3523 47.4611 10.364C47.4147 10.3053 47.4544 10.3554 47.4643 10.3686C47.5078 10.426 47.5504 10.4842 47.5917 10.5433C47.6838 10.6745 47.7691 10.8104 47.8474 10.9503C47.8811 11.008 47.9366 11.05 48.0014 11.067C48.0662 11.0839 48.1352 11.0745 48.193 11.0407C48.2508 11.0069 48.2927 10.9516 48.3098 10.8868C48.3267 10.8222 48.3173 10.7533 48.2834 10.6956C48.1256 10.4187 47.9442 10.1559 47.7413 9.91005C47.6544 9.80278 47.5651 9.69707 47.4691 9.59731C47.4457 9.57388 47.4178 9.55527 47.3872 9.54261C47.3565 9.52994 47.3238 9.52344 47.2905 9.52344C47.2574 9.52344 47.2245 9.52994 47.1939 9.54261C47.1633 9.55527 47.1354 9.57388 47.112 9.59731C47.0885 9.62073 47.07 9.64853 47.0572 9.67914C47.0445 9.70974 47.038 9.74258 47.038 9.77565C47.038 9.80872 47.0445 9.84156 47.0572 9.87216C47.07 9.90276 47.0885 9.93056 47.112 9.95399Z" fill="white"/>
<path d="M48.2973 12.1549C48.3048 12.1629 48.312 12.1713 48.3191 12.1797C48.3263 12.1881 48.335 12.1985 48.3426 12.208C48.3479 12.2145 48.3528 12.2212 48.3582 12.2276C48.3819 12.2561 48.3157 12.1702 48.3388 12.2026C48.4039 12.2918 48.4643 12.3842 48.5199 12.4795C48.5561 12.5429 48.5898 12.6077 48.621 12.6739C48.6316 12.6963 48.6421 12.7187 48.6522 12.7411C48.6579 12.7538 48.6812 12.8084 48.6577 12.7523C48.6761 12.7964 48.6936 12.8409 48.71 12.8856C48.7825 13.085 48.8361 13.2908 48.8701 13.5003C48.8882 13.5647 48.931 13.6194 48.9892 13.6523C49.0474 13.6853 49.1163 13.694 49.1808 13.6764C49.2445 13.657 49.2981 13.6141 49.3309 13.5564C49.3637 13.4987 49.3731 13.4307 49.3571 13.3663C49.2916 12.9651 49.1557 12.5786 48.9555 12.2246C48.8719 12.0711 48.7708 11.928 48.654 11.7979C48.6064 11.7512 48.5423 11.725 48.4754 11.725C48.4086 11.725 48.3445 11.7512 48.2968 11.7979C48.2508 11.8459 48.2251 11.9098 48.2251 11.9763C48.2251 12.0428 48.2508 12.1067 48.2968 12.1546L48.2973 12.1549Z" fill="white"/>
<path d="M47.6957 13.6848C47.6957 13.6848 47.5947 13.4243 47.4476 13.4349C47.487 13.8088 47.4913 13.8482 47.5162 14.0841C47.5411 14.3201 47.5433 14.7585 47.6397 15.5309C47.7361 16.3033 48.0739 18.2362 47.7358 20.0686C47.5131 20.3404 47.3505 20.4787 47.3624 19.8929C47.3743 19.3071 47.5052 16.4965 47.3456 16.1031C47.186 15.7098 46.8849 15.5192 46.7206 15.5052C46.9689 15.8482 47.1099 16.2569 47.1257 16.6799C47.1335 16.8914 47.0968 19.6186 47.1218 19.8547C47.1468 20.0908 47.1822 20.8436 47.5564 20.4681C47.6174 20.906 47.635 20.9303 47.8043 21.1365C47.9737 21.3426 47.8312 21.8107 47.7116 22.0771C47.5921 22.3434 48.0829 23.2619 48.1628 23.4585C48.2427 23.6551 48.7441 24.0618 49.029 23.5268C49.2043 23.088 48.6286 23.4423 48.5959 23.413C48.5631 23.3837 48.2654 23.3906 47.9148 22.5977C48.2394 22.0355 48.3637 21.3899 48.2925 21.1393C48.2212 20.8887 47.8948 20.5946 47.8948 20.5946C47.8948 20.5946 48.2883 20.2631 48.3906 20.3906C48.4928 20.5182 48.6054 20.7443 48.4829 21.1238C48.6594 21.2559 49.0307 21.4118 49.1015 21.6625C49.1723 21.9133 49.4045 21.7401 49.4089 21.4944C49.4011 21.3699 49.3595 21.2497 49.2887 21.1469C49.218 21.044 49.1206 20.9623 49.0069 20.9104C48.8235 20.8521 48.8743 20.7731 48.9283 20.448C48.9823 20.1229 48.856 19.2081 48.033 20.0876C48.0963 19.7083 48.7465 17.6136 48.4395 16.1083C48.6425 15.7924 48.8596 15.2228 48.8806 15.001C48.9016 14.7793 48.7667 13.9879 48.7667 13.9879C48.7667 13.9879 48.6266 15.502 48.3707 15.8772C48.2742 15.5231 48.1013 15.145 48.0928 15.0662C48.0843 14.9874 48.0415 14.4412 48.0415 14.4412C48.0415 14.4412 48.4093 14.0067 48.467 13.8538C48.5247 13.7009 48.6409 13.2621 48.5331 13.3612C48.4254 13.4603 48.229 13.7023 48.1505 13.6583C48.0719 13.6142 47.9657 13.4474 47.6957 13.6848Z" fill="white"/>
<path d="M50.0398 10.7361C50.0588 10.499 50.1086 10.2654 50.1881 10.0411C50.2276 10.4151 50.232 10.4544 50.2569 10.6906C50.2818 10.9268 50.363 11.2759 50.4332 12.0778C50.5035 12.8797 50.6031 15.0796 51.2162 15.8449C51.4428 15.6125 51.5971 15.3955 51.4769 14.9578C51.3567 14.5201 50.8201 12.569 50.7732 11.9384C50.7299 11.4265 50.8011 10.9113 50.9814 10.4302C50.9206 11.3864 51.0214 11.77 51.0555 11.9521C51.0896 12.1343 51.6342 14.2088 51.6591 14.445C51.6841 14.6811 51.7988 15.3452 51.433 15.7997C51.4677 16.2672 51.4587 16.3213 51.3641 16.8237C51.2694 17.3261 51.4705 17.4089 51.615 17.3788C51.7596 17.3486 51.7315 18.8993 51.7057 19.2146C51.6799 19.5298 51.5609 20.4997 51.0606 20.7972C50.8394 20.8033 51.2038 20.1964 51.224 20.1074C51.4509 19.4961 51.5627 18.8481 51.5536 18.1963C51.1914 18.4045 50.9718 18.1447 50.9803 17.805C50.9888 17.4652 51.19 16.5787 51.19 16.5787C51.19 16.5787 50.8172 17.1069 50.7608 17.4123C50.7043 17.7178 50.6586 18.1218 50.8269 18.1751C50.7127 18.6333 50.4497 19.5007 50.4414 19.8404C50.4331 20.18 50.217 20.5106 50.1675 20.3238C50.118 20.1371 50.2399 19.4719 50.3735 19.0578C50.5072 18.6438 50.4521 18.6837 50.3476 18.5365C50.2431 18.3893 50.1701 17.4147 50.9848 16.4565C50.8631 16.2849 49.9549 15.9391 49.9119 14.1377C49.6921 14.2963 49.4461 14.4843 49.3875 14.3517C49.3355 14.1847 49.2977 14.0136 49.2744 13.8403C49.2744 13.8403 49.6497 14.0355 49.9222 13.8179C49.9313 13.3453 49.9961 12.7001 49.9878 12.6215C49.9795 12.543 49.9101 12.0262 49.9101 12.0262C49.9101 12.0262 49.538 12.4216 49.4637 12.4169C49.3894 12.4121 49.2146 12.2999 49.3178 12.1616C49.4209 12.0233 49.6217 11.8205 49.6752 11.6284C49.7343 11.3091 49.8583 11.0055 50.0398 10.7361Z" fill="white"/>
<path d="M48.8372 16.3889C48.8372 16.3889 49.7795 15.8462 50.0074 15.6338C50.2354 15.4214 50.053 16.0435 50.053 16.0435C50.1563 16.4125 50.2187 16.7916 50.2392 17.1742C50.2504 18.7906 49.977 19.2004 49.4603 19.4129C49.4603 19.4129 48.7756 19.6557 48.7158 18.4113C48.6663 17.3791 48.8829 16.8442 48.8829 16.8442C48.8829 16.8442 48.6094 16.4799 48.8372 16.3889Z" fill="white"/>
<path d="M48.408 16.288C48.408 16.288 48.7386 16.4702 48.9551 16.4702C49.1716 16.4702 48.8868 16.7319 48.8868 16.7319C48.7136 16.648 48.5461 16.5529 48.3853 16.4473L48.294 16.3677L48.4194 16.2311L48.408 16.288Z" fill="white"/>
<path d="M44.1055 0.594111C44.0036 0.730865 44.2851 1.11221 44.734 1.44602C45.183 1.77984 45.6297 1.93924 45.7317 1.80271C45.8338 1.66618 45.5522 1.28461 45.1032 0.950793C44.6542 0.616978 44.2075 0.457357 44.1055 0.594111Z" fill="white"/>
<path d="M22.6206 14.4026L21.9618 14.5502L21.3945 14.7577L20.8858 14.9942L20.4369 15.2617L20.0777 15.5875L19.7487 15.9428L19.4799 16.2976L19.2408 16.7127L19.0611 17.1567L18.9114 17.6021L18.8224 18.0758L18.7627 18.5492L18.732 19.0826L18.7024 19.5866L18.732 20.1199L18.7627 20.6528L18.8516 21.749L19.0016 22.8153L19.1505 23.8525L19.2408 24.8594L19.27 25.3331L19.3002 25.8076L19.27 26.2223L19.2408 26.6371L19.1807 27.0217L19.0908 27.3769L18.9419 27.6734L18.7627 27.9696L18.6125 27.8805L18.4328 27.7623L18.2538 27.5259L18.0436 27.2585L17.9545 27.051L17.8646 26.8436L17.8045 26.6068L17.7451 26.3698L17.6848 26.0735L17.6557 25.7477V25.3926V25.0069L17.2957 25.0669L17.1168 25.1253L16.9676 25.1852L16.848 25.2451L16.7284 25.3331L16.6381 25.4522L16.5784 25.5402L16.4588 25.8076L16.3985 26.0735L16.3697 26.3698L16.4292 26.6959L16.4889 27.0217L16.6089 27.3476L16.7577 27.6734L16.9078 28.0284L17.1168 28.325L17.3262 28.651L17.5361 28.9178L17.7752 29.1547L18.582 28.8584L19.27 28.5322L19.5689 28.3847L19.8085 28.2067L20.0485 28.0284L20.2575 27.8514L20.4369 27.6734L20.6161 27.4659L20.7357 27.2888L20.8553 27.0814L20.9455 26.8741L21.0054 26.6668L21.1249 26.2223L21.1554 25.778L21.1249 25.2742L21.0953 24.7703L21.0054 24.2078L20.826 23.0227L20.7357 22.371L20.6755 21.6901L20.6467 21.4828L20.5864 20.8899L20.556 20.0012L20.5864 19.4974L20.6161 18.9347L20.6755 18.3418L20.795 17.75L20.9455 17.1276L21.1554 16.5358L21.4243 15.9428L21.5739 15.6766L21.7532 15.4093L21.9329 15.1433L22.1416 14.876L22.3816 14.6393L22.6206 14.4026Z" fill="white"/>
<path d="M27.4366 29.6593V29.2444L27.4662 28.8591L27.5853 28.1182L27.7346 27.4077L27.9445 26.7857L28.3642 25.6004L28.5719 25.0379L28.752 24.5049L28.8717 23.9413L28.9009 23.6751V23.4087V23.1416L28.8717 22.8451L28.8424 22.5499L28.752 22.2534L28.6325 21.9568L28.5131 21.6309L28.3327 21.3052L28.1246 20.9797L27.8833 20.6243L27.6146 20.2681L27.2856 19.8835L26.8973 19.4689L26.0896 20.1206L25.2217 20.7718L24.2055 21.4834L24.1754 20.4461L24.2055 19.3797L24.2652 18.1361L24.2945 17.5136L24.3849 16.9207L24.5045 16.3581L24.6239 15.8545L24.8033 15.4099L24.8938 15.2331L25.0132 15.084L25.1327 14.9657L25.2524 14.8473L25.4015 14.7875H25.5517L25.6711 14.9073L25.8208 15.0257L25.9993 15.1439L26.2091 15.2623L26.419 15.3512L26.6582 15.4099L26.927 15.4392L27.1661 15.4695L27.4366 15.4392L27.7048 15.3808L27.9738 15.2623L28.2739 15.1137L28.5423 14.9073L28.8105 14.64L29.0815 14.2849L29.3207 13.8993L29.1108 13.9884L28.9009 14.0775L28.691 14.1066L28.4839 14.1666H28.064L27.6756 14.1358L27.2564 14.0175L26.8681 13.87L26.4775 13.692L26.0896 13.4846L25.6406 13.6624L25.2524 13.87L24.8631 14.1066L24.5045 14.374L24.2055 14.6692L23.9066 14.9949L23.6676 15.3808L23.4284 15.7664L23.2477 16.2102L23.0684 16.684L22.949 17.2173L22.8595 17.7507L22.7696 18.3424L22.74 18.9951V19.676L22.7696 20.3863L22.979 23.4384L23.0392 25.0379L23.0986 26.6074V27.3483V28.0594L23.0392 28.7408L22.979 29.3336L22.8891 29.8962L22.7696 30.3697L22.6203 30.7552L22.5305 30.9028L22.4414 31.0517L22.0523 30.8136L21.7224 30.6064L21.3942 30.4589L21.1246 30.3402L20.8855 30.251L20.6463 30.1928L20.4365 30.1624H20.2572L20.0482 30.1928L19.898 30.251L19.5686 30.3697L18.8819 30.6953L19.2405 30.8136L19.5686 30.9323L19.8383 31.1106L20.0774 31.2884L20.4666 31.6435L20.6463 31.7914L20.8257 31.9401L21.005 32.0585L21.184 32.117L21.4239 32.1474L21.6926 32.0877L21.9921 31.9988L22.3219 31.7914L22.74 31.5252L23.2181 31.1398L23.3978 30.9626L23.5772 30.7844L23.7272 30.6064L23.8761 30.4001L24.1152 29.9548L24.2945 29.4811L24.4141 28.9773L24.5045 28.4745L24.5647 27.9411V27.4077V26.9039L24.5349 26.4001L24.4739 25.4529L24.3543 24.6233L24.2945 24.0302L24.2347 22.2825L24.3849 22.1351L24.5349 21.9568L24.7436 21.8385L24.9233 21.7199L25.1327 21.6309L25.3417 21.6017L25.5517 21.6309L25.761 21.6908L25.9407 21.8385L26.1506 22.0459L26.2995 22.3425L26.4775 22.7267L26.5997 23.2016L26.7167 23.7933L26.8074 24.5049L26.8681 25.3337L26.8973 25.8974V26.4595L26.8388 27.3775L26.7776 28.1485L26.6582 28.8294L26.5997 29.392L26.5385 29.9548V30.251L26.5684 30.5184L26.5997 30.8136L26.6582 31.1398L26.8388 31.8217L26.927 32.1474L27.0465 32.4135L27.1661 32.6505L27.317 32.8578L27.4366 33.036L27.6146 33.1835L27.7639 33.3022L27.9445 33.3618L28.1246 33.3913H28.3031L28.5131 33.3326L28.7224 33.2434L28.9619 33.0955L29.2011 32.888L29.4699 32.6505L29.5896 32.4734L29.6501 32.4135V32.3243V32.266L29.6188 32.2061L29.5305 32.117L29.3796 32.0585L28.9305 31.8805L28.691 31.7618L28.4227 31.6435L28.1835 31.4652L27.9445 31.2288L27.7346 30.9626L27.6442 30.7844L27.5561 30.6064L27.4954 30.4001L27.4662 30.1928L27.4366 29.9253V29.6593Z" fill="white"/>
<path d="M33.8683 22.9024H33.8073L33.2705 22.4875L32.9704 22.2214L32.7016 21.9249L32.4018 21.6282L32.133 21.3025L31.8939 20.9473L31.684 20.5914L31.506 20.2361L31.3843 19.8808L31.2961 19.5246V19.1697L31.3254 18.9925L31.355 18.8144L31.4157 18.6655L31.506 18.4884L31.6256 18.3104L31.7447 18.1626L31.8939 18.0138L32.0724 17.8662L32.4923 18.0737L32.9115 18.37L33.3291 18.7253L33.7488 19.14L34.1367 19.6137L34.3173 19.8808L34.4665 20.147L34.6153 20.4434L34.7349 20.7399L34.8545 21.0352L34.9444 21.3623L35.0345 21.1841L35.125 21.0061L35.2131 20.6508L35.2445 20.2654V19.8808L35.1546 19.5246L35.0345 19.14L34.8545 18.7546L34.6153 18.3991L34.3465 18.0445L34.0783 17.688L33.7488 17.3625L33.3902 17.0667L33.031 16.7703L32.641 16.5031L32.253 16.2664L31.8647 16.059L31.506 16.5629L31.2057 17.0364L30.937 17.4806L30.7273 17.8954L30.5177 18.3104L30.3689 18.6962L30.2176 19.0806L30.1294 19.4366L30.0687 19.7917L30.0099 20.1179L29.9785 20.4141V20.7096L30.0099 20.977L30.0396 21.2425L30.0979 21.5099L30.1883 21.7469L30.3689 22.1616L30.6081 22.5472L30.8471 22.9024L31.1156 23.1989L31.4157 23.4357L31.6548 23.6724L32.0724 23.9982L32.463 24.3532L32.7918 24.7093L33.0606 25.0939L33.2998 25.4502L33.4782 25.8348L33.6588 26.2203L33.7781 26.6047L33.8683 26.9902L33.9267 27.3456V27.7007V28.0263L33.8975 28.3523L33.8387 28.649L33.7488 28.9158L33.6588 29.1526L33.5389 29.3601L33.3902 29.5382L33.2391 29.6857L33.0606 29.7749L32.88 29.8043H32.7016L32.4923 29.7446L32.2823 29.6566L32.0724 29.4784L31.8647 29.2709L31.6548 28.9746L31.4453 28.6193L31.2355 28.1754L31.0251 27.6713L30.8175 27.1085L30.6374 26.4276L30.4592 25.6868L30.3392 26.1021L30.2495 26.546L30.2176 27.0196V27.5238L30.2787 28.0263L30.3689 28.5302L30.4885 29.0343L30.6374 29.508L30.8175 29.9521L31.0251 30.3375L31.2648 30.6926L31.506 30.9892L31.6256 31.0782L31.7745 31.1965L31.8939 31.2565L32.0432 31.3151L32.1919 31.3443H32.3429L32.4923 31.3151L32.641 31.2565L32.9115 31.1079L33.2095 30.9001L33.5686 30.6343L33.9267 30.3083L34.286 29.9226L34.645 29.4784L34.974 28.9746L35.2741 28.4413L35.3938 28.1458L35.484 27.8493L35.5721 27.5529L35.6329 27.2272L35.6625 26.9012V26.5756L35.6329 26.2494L35.6036 25.8947L35.5133 25.5382L35.3938 25.1832L35.2445 24.7975L35.0644 24.4423L34.8247 24.0577L34.5568 23.6724L34.2271 23.287L33.8683 22.9024Z" fill="white"/>
<path d="M22.2357 42.9894V42.9137C22.3494 42.9109 22.4621 42.8906 22.5696 42.8534C22.6478 42.827 22.7159 42.7767 22.7642 42.7097C22.8005 42.6327 22.82 42.549 22.8216 42.4639C22.8323 42.3421 22.8378 42.1441 22.838 41.8698V40.9885C22.8415 40.8244 22.8344 40.6602 22.8164 40.497C22.8097 40.4243 22.784 40.3547 22.7417 40.2952C22.6901 40.2442 22.6257 40.2082 22.5552 40.1912C22.4513 40.1602 22.344 40.1417 22.2357 40.1361V40.0562C22.2889 40.0577 22.3476 40.0587 22.4119 40.0594C22.4761 40.06 22.571 40.0604 22.6965 40.0604C22.8509 40.0604 22.9659 40.06 23.0418 40.0594C23.1175 40.0587 23.1868 40.057 23.2497 40.0542C23.2401 40.198 23.2329 40.3243 23.2282 40.4332C23.2234 40.542 23.221 40.6299 23.221 40.6969V42.1127C23.2165 42.2715 23.2245 42.4304 23.2446 42.588C23.2536 42.6561 23.2815 42.7205 23.3254 42.7736C23.3794 42.8226 23.4451 42.857 23.5162 42.8735C23.6194 42.8994 23.7253 42.913 23.8317 42.9144V42.99C23.6147 42.9859 23.4515 42.9835 23.3421 42.9828C23.2327 42.982 23.1309 42.9818 23.0368 42.9819C22.9427 42.9819 22.841 42.9822 22.7317 42.9828C22.6223 42.9833 22.457 42.9856 22.2357 42.9894Z" fill="white"/>
<path d="M24.2945 43.0892L24.2536 43.0014C24.5617 42.8565 24.8437 42.6619 25.0884 42.4254C25.2922 42.2226 25.4455 41.975 25.5359 41.7023C25.4394 41.7598 25.3362 41.8055 25.2287 41.8383C25.131 41.8673 25.0296 41.8821 24.9276 41.8822C24.8116 41.8879 24.6958 41.8692 24.5876 41.8274C24.4794 41.7855 24.3812 41.7215 24.2993 41.6393C24.2174 41.5571 24.1537 41.4587 24.1124 41.3504C24.071 41.2422 24.0528 41.1264 24.0589 41.0107C24.0542 40.8779 24.0772 40.7455 24.1264 40.6221C24.1757 40.4985 24.25 40.3865 24.3447 40.2933C24.4421 40.1999 24.5573 40.1271 24.6836 40.0792C24.8097 40.0312 24.9442 40.009 25.0791 40.0141C25.2163 40.0066 25.3535 40.0275 25.4823 40.0756C25.6109 40.1236 25.7283 40.1978 25.8269 40.2933C25.9211 40.3969 25.9936 40.5181 26.0404 40.6501C26.0873 40.782 26.1072 40.9219 26.0993 41.0616C26.1002 41.5105 25.9307 41.9431 25.625 42.2722C25.2622 42.6578 24.8029 42.9399 24.2945 43.0892ZM25.5789 41.5606C25.6005 41.475 25.6173 41.3882 25.6292 41.3008C25.6406 41.2174 25.6465 41.1333 25.6466 41.0491C25.6586 40.8141 25.6039 40.5805 25.4889 40.3751C25.4468 40.2992 25.3848 40.236 25.3099 40.1923C25.2348 40.1486 25.1493 40.1258 25.0624 40.1265C24.9808 40.1243 24.9 40.1417 24.8267 40.1776C24.7534 40.2134 24.6899 40.2664 24.6415 40.3321C24.531 40.5056 24.4758 40.7085 24.4833 40.914C24.4908 41.1194 24.5607 41.3178 24.6835 41.4828C24.7469 41.5577 24.8264 41.6175 24.9161 41.6575C25.0059 41.6975 25.1035 41.7169 25.2017 41.7141C25.2718 41.715 25.3414 41.7021 25.4065 41.6762C25.4709 41.6492 25.5294 41.6099 25.5789 41.5606Z" fill="white"/>
<path d="M26.2946 42.9974L26.266 42.9381C26.6665 42.6147 27.0286 42.2468 27.3455 41.8415C27.5736 41.5276 27.6876 41.2439 27.6876 40.9905C27.6973 40.8266 27.6471 40.6648 27.5463 40.5351C27.4977 40.48 27.4373 40.4366 27.3695 40.4081C27.3019 40.3795 27.2285 40.3666 27.1551 40.3705C27.0306 40.372 26.9087 40.4062 26.8016 40.4697C26.6711 40.5477 26.555 40.6478 26.4585 40.7654L26.3951 40.7141C26.4919 40.5123 26.6326 40.3344 26.8068 40.1935C26.9558 40.0827 27.1373 40.0241 27.3231 40.0268C27.427 40.0245 27.5302 40.0444 27.6257 40.0852C27.7212 40.1259 27.8069 40.1865 27.8771 40.2631C28.0262 40.4228 28.1061 40.635 28.0993 40.8532C28.0993 41.1057 27.9918 41.3767 27.7768 41.6665C27.4821 42.0349 27.1425 42.3652 26.7658 42.6495L27.5115 42.6414C27.617 42.6442 27.7225 42.638 27.8269 42.623C27.8804 42.6147 27.931 42.5936 27.9744 42.5616C28.0262 42.5145 28.0725 42.4618 28.1127 42.4046C28.1714 42.3227 28.2258 42.2376 28.2756 42.1499L28.3473 42.1847L28.0318 42.9887C27.8432 42.9859 27.6964 42.9839 27.5913 42.9826C27.4863 42.9812 27.3887 42.9806 27.2985 42.9806C27.1141 42.9806 26.9392 42.9819 26.774 42.9846C26.6088 42.9873 26.4491 42.9915 26.2946 42.9974Z" fill="white"/>
<path d="M28.711 43.0946L28.67 43.0067C28.9781 42.8619 29.2602 42.6673 29.5048 42.4308C29.7086 42.228 29.8619 41.9804 29.9524 41.7077C29.8558 41.7653 29.7527 41.8109 29.6451 41.8436C29.5474 41.8727 29.4459 41.8875 29.344 41.8876C29.2281 41.8933 29.1124 41.8746 29.004 41.8328C28.8958 41.7908 28.7976 41.7268 28.7157 41.6447C28.6339 41.5625 28.5701 41.4641 28.5288 41.3558C28.4874 41.2475 28.4692 41.1318 28.4754 41.0161C28.4707 40.8832 28.4937 40.7508 28.543 40.6274C28.5921 40.5039 28.6665 40.3919 28.7613 40.2987C28.9661 40.1189 29.2294 40.0197 29.5021 40.0197C29.7748 40.0197 30.0381 40.1189 30.2428 40.2987C30.3371 40.4022 30.4097 40.5235 30.4564 40.6554C30.5032 40.7874 30.5232 40.9273 30.5153 41.0669C30.5162 41.5159 30.3467 41.9485 30.041 42.2776C29.6783 42.6632 29.2192 42.9452 28.711 43.0946ZM29.9954 41.566C30.0169 41.4803 30.0337 41.3936 30.0456 41.3062C30.057 41.2228 30.0628 41.1387 30.0629 41.0545C30.075 40.8194 30.0203 40.5858 29.9052 40.3805C29.8631 40.3045 29.8013 40.2414 29.7262 40.1975C29.6512 40.1538 29.5657 40.1311 29.4787 40.1319C29.3971 40.1296 29.3162 40.1471 29.2429 40.183C29.1696 40.2187 29.1061 40.2718 29.0577 40.3374C28.9472 40.511 28.8921 40.7139 28.8997 40.9193C28.9072 41.1248 28.977 41.3232 29.0998 41.4882C29.1632 41.5632 29.2428 41.6228 29.3325 41.6628C29.4223 41.7029 29.5198 41.7222 29.618 41.7194C29.6882 41.7203 29.7579 41.7074 29.823 41.6816C29.8874 41.6544 29.9459 41.6152 29.9954 41.566Z" fill="white"/>
<path d="M20.8353 41.5933H17.8052V41.7054H20.8353V41.5933Z" fill="white"/>
<path d="M35.1201 41.5933H32.09V41.7054H35.1201V41.5933Z" fill="white"/>
<path d="M17.848 39.162L17.8465 39.1031C17.9636 39.1083 18.0789 39.073 18.1731 39.0033C18.2274 38.9473 18.2545 38.8165 18.2544 38.6109V37.4546C18.2544 37.2464 18.2284 37.1132 18.1763 37.0551C18.089 36.983 17.9789 36.9442 17.8655 36.9454V36.8865C17.9686 36.8865 18.1115 36.8876 18.2942 36.8897C18.4769 36.8919 18.6081 36.893 18.6877 36.8929C18.8249 36.8929 18.9653 36.8923 19.1092 36.8913C19.2531 36.8903 19.4196 36.8886 19.6087 36.8865L19.5593 37.4179H19.5114C19.5162 37.3536 19.5063 37.2891 19.4827 37.229C19.4591 37.1691 19.4224 37.115 19.3752 37.0711C19.2908 37.0074 19.127 36.9756 18.8837 36.9756H18.5619V37.9654H18.9362C19.0574 37.9747 19.1787 37.9469 19.2836 37.8858C19.322 37.8552 19.3527 37.8162 19.3735 37.7717C19.3943 37.7273 19.4044 37.6786 19.4031 37.6297L19.4557 37.6312C19.4505 37.7351 19.4465 37.833 19.4438 37.9248C19.4411 38.0166 19.4397 38.1054 19.4397 38.1912C19.4397 38.2635 19.4401 38.3181 19.4406 38.3552C19.4413 38.3923 19.4415 38.4268 19.4413 38.4586H19.3936C19.3985 38.4088 19.3917 38.3585 19.3737 38.3119C19.3557 38.2651 19.327 38.2233 19.29 38.1896C19.187 38.1265 19.0663 38.0981 18.9459 38.1085H18.5619V38.5948C18.5619 38.7932 18.5938 38.923 18.6574 38.9842C18.7212 39.0454 18.8534 39.085 19.0542 39.103V39.1619H19.0351C18.7653 39.1576 18.565 39.1555 18.4344 39.1555C18.3621 39.1555 18.2849 39.156 18.2026 39.157L17.848 39.162Z" fill="white"/>
<path d="M19.7937 38.0098C19.7865 37.8529 19.8127 37.6963 19.8709 37.5503C19.9289 37.4044 20.0173 37.2725 20.1304 37.1633C20.377 36.944 20.7 36.8304 21.0298 36.8466C21.1917 36.8389 21.3536 36.8639 21.5057 36.92C21.6578 36.9763 21.7969 37.0625 21.9149 37.1736C22.0271 37.288 22.1145 37.4242 22.1716 37.5739C22.2287 37.7235 22.2544 37.8833 22.247 38.0432C22.2536 38.1991 22.2268 38.3546 22.1684 38.4993C22.1101 38.6442 22.0214 38.7747 21.9085 38.8826C21.6624 39.1018 21.34 39.2158 21.0106 39.2C20.8487 39.2077 20.6871 39.1829 20.535 39.1271C20.383 39.0712 20.2437 38.9855 20.1254 38.875C20.0134 38.7614 19.9261 38.6259 19.869 38.477C19.8118 38.3282 19.7862 38.1691 19.7937 38.0098ZM20.1825 37.9636C20.1694 38.2563 20.2546 38.5451 20.4246 38.7839C20.494 38.883 20.5866 38.9637 20.6944 39.0191C20.802 39.0744 20.9217 39.1026 21.0428 39.1014C21.157 39.1048 21.2705 39.081 21.3739 39.032C21.4772 38.9831 21.5674 38.9104 21.6371 38.8198C21.796 38.6026 21.8753 38.3375 21.8616 38.0688C21.862 37.9334 21.8444 37.7985 21.8091 37.6678C21.7776 37.5475 21.727 37.4331 21.6592 37.3289C21.5851 37.21 21.4846 37.1098 21.3654 37.0362C21.2091 36.9494 21.0273 36.9205 20.8517 36.9546C20.6763 36.9886 20.5185 37.0834 20.4062 37.2223C20.2485 37.4365 20.1695 37.6984 20.1825 37.964V37.9636Z" fill="white"/>
<path d="M22.6678 38.2836V37.4478C22.6713 37.3516 22.6651 37.2551 22.6495 37.1601C22.6408 37.1162 22.6175 37.0764 22.5834 37.0471C22.5424 37.0155 22.496 36.9915 22.4464 36.9764C22.3868 36.9587 22.3252 36.9482 22.2631 36.9453V36.8865C22.3322 36.8886 22.4059 36.8902 22.4845 36.8912C22.5631 36.8922 22.6821 36.8927 22.8414 36.8929C23.0028 36.8929 23.1237 36.8923 23.2039 36.8912C23.2841 36.8901 23.359 36.8885 23.4283 36.8865L23.4299 36.9453C23.3005 36.9345 23.1718 36.9724 23.0691 37.0519C23.0069 37.1176 22.9758 37.2484 22.9758 37.4443V38.252C22.9721 38.3754 22.9841 38.4989 23.0117 38.6193C23.0331 38.7007 23.0746 38.7756 23.132 38.8371C23.2013 38.9089 23.2864 38.9633 23.3805 38.9961C23.4895 39.0346 23.6045 39.0537 23.72 39.0521C23.854 39.0574 23.987 39.0281 24.1063 38.967C24.2128 38.9034 24.2968 38.808 24.346 38.6943C24.3816 38.608 24.4029 38.5164 24.409 38.4233C24.4212 38.3051 24.4273 38.1167 24.4273 37.858C24.4307 37.6823 24.424 37.5067 24.4074 37.3318C24.4013 37.2546 24.3782 37.1797 24.3401 37.1123C24.301 37.0564 24.2461 37.0135 24.1824 36.989C24.1002 36.9593 24.0133 36.9445 23.9259 36.9453V36.8865C23.9843 36.8886 24.0465 36.8903 24.1123 36.8912C24.1782 36.8921 24.278 36.8929 24.4118 36.8929C24.5456 36.8929 24.6475 36.8929 24.7137 36.8912C24.78 36.8895 24.8415 36.8886 24.8978 36.8865V36.9453H24.8914C24.8375 36.9403 24.7833 36.9517 24.7362 36.9782C24.6889 37.0045 24.6509 37.0448 24.627 37.0933C24.5792 37.1918 24.5553 37.4403 24.5553 37.839C24.5553 37.8729 24.5548 37.9238 24.5537 37.9916C24.5494 38.3605 24.5187 38.6113 24.4612 38.7436C24.3971 38.8945 24.2814 39.0177 24.1346 39.0911C23.9578 39.1755 23.7633 39.2161 23.5674 39.2095C23.4093 39.2133 23.2517 39.1885 23.1022 39.1364C22.9832 39.0946 22.879 39.0188 22.8026 38.9185C22.7537 38.8502 22.7188 38.7729 22.6999 38.6911C22.6747 38.5568 22.6639 38.4201 22.6678 38.2836Z" fill="white"/>
<path d="M25.0528 39.1572L25.0511 39.0983C25.1176 39.1022 25.184 39.0892 25.244 39.0605C25.3042 39.0318 25.3559 38.9884 25.3945 38.9341C25.4555 38.8331 25.486 38.6244 25.4861 38.3082V37.683C25.4861 37.6545 25.4861 37.6164 25.4877 37.5689C25.4893 37.5214 25.4893 37.488 25.4893 37.4689C25.4925 37.3883 25.4816 37.3078 25.4574 37.2309C25.4346 37.1727 25.3987 37.1205 25.3522 37.0786C25.3087 37.0392 25.2582 37.0082 25.2033 36.9874C25.1412 36.9637 25.076 36.9496 25.0097 36.9453V36.8865C25.0448 36.8865 25.0958 36.8875 25.1627 36.8896C25.2296 36.8917 25.2784 36.8928 25.3092 36.8929C25.3411 36.8929 25.3874 36.8917 25.4479 36.8896C25.5084 36.8875 25.5525 36.8864 25.5801 36.8865L27.2116 38.6286V37.8783C27.216 37.6881 27.2083 37.4978 27.1885 37.3086C27.1808 37.2297 27.1525 37.1543 27.1064 37.0897C27.0697 37.0446 27.0211 37.0106 26.9663 36.9914C26.894 36.9656 26.8184 36.9502 26.7418 36.9453V36.8865C26.7992 36.8886 26.8608 36.8903 26.9266 36.8912C26.9925 36.8921 27.0886 36.8929 27.2151 36.8929C27.3416 36.8929 27.4331 36.8929 27.4931 36.8912C27.5532 36.8895 27.6081 36.8886 27.658 36.8865V36.9453H27.6325C27.5784 36.9436 27.5253 36.9599 27.4813 36.9914C27.4374 37.023 27.4051 37.0681 27.3894 37.1199C27.3314 37.331 27.308 37.5502 27.3202 37.7688V38.4638C27.3202 38.6256 27.3215 38.7691 27.3242 38.8942C27.3269 39.0193 27.3304 39.1351 27.3346 39.2417H27.3153C27.2496 39.1657 27.1782 39.0836 27.1011 38.9956L26.9729 38.8494L25.5929 37.3912V38.0337C25.5929 38.35 25.5989 38.563 25.6112 38.6726C25.6156 38.7545 25.6371 38.8347 25.6741 38.908C25.7068 38.9576 25.7534 38.9965 25.8079 39.0201C25.8916 39.0563 25.9793 39.0818 26.0692 39.0962V39.1567H26.0597C25.8352 39.1525 25.668 39.1503 25.5579 39.1503C25.4962 39.1503 25.4298 39.1509 25.3586 39.1519C25.2875 39.1529 25.1856 39.1547 25.0528 39.1572Z" fill="white"/>
<path d="M27.8114 39.1575V39.0986C27.9335 39.1012 28.053 39.0634 28.1515 38.9911C28.2214 38.893 28.2524 38.7727 28.2385 38.6531V37.3657C28.2503 37.2561 28.2214 37.1461 28.1571 37.0566C28.0682 36.987 27.9592 36.9481 27.8464 36.9456V36.8868C28.0291 36.8847 28.2234 36.8818 28.4295 36.8781C28.6354 36.8744 28.7523 36.8726 28.7801 36.8726C29.2558 36.8726 29.6287 36.976 29.8986 37.1828C30.0298 37.2811 30.1352 37.4099 30.2057 37.5579C30.2762 37.7059 30.3097 37.8687 30.3033 38.0325C30.31 38.1918 30.2783 38.3504 30.2112 38.495C30.144 38.6397 30.0431 38.7662 29.9169 38.8639C29.6593 39.0657 29.3043 39.1666 28.8517 39.1666C28.7646 39.1666 28.604 39.1652 28.3699 39.1626C28.1357 39.1601 27.9495 39.1583 27.8114 39.1575ZM28.5522 38.5607C28.5522 38.7719 28.5862 38.9122 28.6542 38.9816C28.7222 39.051 28.849 39.0857 29.0349 39.0858C29.1534 39.0893 29.2712 39.0665 29.3798 39.0188C29.4884 38.9712 29.585 38.9 29.6627 38.8105C29.8378 38.5821 29.9234 38.2976 29.9037 38.0106C29.8839 37.7236 29.7599 37.4535 29.5551 37.2512C29.3209 37.0485 28.9962 36.9472 28.5809 36.9473H28.5522V38.5607Z" fill="white"/>
<path d="M30.3508 39.162V39.1031C30.4741 39.0999 30.5941 39.0614 30.6965 38.9925C30.7526 38.9401 30.7808 38.8275 30.7809 38.6543V37.4052C30.7809 37.2225 30.7529 37.1018 30.6973 37.0432C30.6091 36.973 30.4981 36.9381 30.3858 36.9454V36.8865C30.492 36.8891 30.605 36.8908 30.7251 36.8916C30.8451 36.8924 31.0193 36.8929 31.2478 36.8929C31.5144 36.8929 31.7096 36.8924 31.8332 36.8916C31.9569 36.8908 32.0682 36.8896 32.1671 36.8882C32.1574 36.9602 32.1491 37.0376 32.1424 37.1204C32.1355 37.2033 32.1289 37.2982 32.1225 37.4052H32.0727C32.0749 37.3434 32.0641 37.2817 32.0409 37.2243C32.0178 37.1669 31.9826 37.115 31.938 37.0721C31.8104 36.998 31.6628 36.9655 31.5157 36.9791H31.0892V37.9178H31.4174C31.5452 37.9287 31.6738 37.9051 31.7894 37.8494C31.8274 37.8195 31.8588 37.782 31.8814 37.7392C31.9041 37.6965 31.9175 37.6494 31.9208 37.6012H31.9734C31.9734 37.6606 31.971 37.754 31.9663 37.8814C31.9614 38.0089 31.9591 38.1081 31.9592 38.179V38.3668H31.9113C31.9111 38.3205 31.9001 38.2748 31.879 38.2335C31.8581 38.1921 31.8276 38.1564 31.7903 38.1289C31.675 38.0746 31.5475 38.0514 31.4205 38.0617H31.0892V38.6409C31.0892 38.818 31.1252 38.9346 31.1975 38.9909C31.2697 39.0472 31.4104 39.0753 31.6198 39.0752C31.7831 39.0847 31.9443 39.0341 32.0727 38.9329C32.1935 38.8156 32.2709 38.6608 32.2918 38.4938L32.3444 38.5001C32.3386 38.6183 32.325 38.7361 32.3038 38.8526C32.2842 38.9599 32.2562 39.0656 32.22 39.1685C32.0661 39.1642 31.8978 39.161 31.7149 39.1588C31.532 39.1567 31.3329 39.1556 31.1175 39.1557C30.9168 39.1557 30.7627 39.1563 30.6554 39.1573C30.548 39.1583 30.4464 39.1598 30.3508 39.162Z" fill="white"/>
<path d="M32.4905 39.1575V39.0986C32.6127 39.1012 32.7322 39.0634 32.8306 38.9911C32.9006 38.893 32.9315 38.7727 32.9176 38.6531V37.3657C32.9295 37.2561 32.9006 37.1461 32.8362 37.0566C32.7475 36.987 32.6384 36.9481 32.5256 36.9456V36.8868C32.7082 36.8847 32.9027 36.8818 33.1092 36.8781C33.3157 36.8744 33.4326 36.8726 33.4596 36.8726C33.9355 36.8726 34.3084 36.976 34.5782 37.1828C34.7094 37.2813 34.8148 37.4099 34.8853 37.5579C34.9558 37.7059 34.9893 37.8687 34.9829 38.0325C34.9895 38.1918 34.9579 38.3504 34.8907 38.495C34.8235 38.6396 34.7227 38.7662 34.5965 38.8639C34.3389 39.0657 33.9838 39.1666 33.5314 39.1666C33.4443 39.1666 33.2836 39.1652 33.0494 39.1626C32.8151 39.1601 32.6289 39.1583 32.4905 39.1575ZM33.2313 38.5607C33.2313 38.7719 33.2653 38.9122 33.3334 38.9816C33.4014 39.051 33.5283 39.0857 33.7142 39.0858C33.8327 39.0893 33.9506 39.0665 34.0591 39.0188C34.1676 38.9712 34.2643 38.9 34.342 38.8105C34.5171 38.582 34.6027 38.2976 34.5828 38.0105C34.5631 37.7236 34.4392 37.4535 34.2343 37.2512C34.0002 37.0485 33.6755 36.9472 33.2601 36.9473H33.2313V38.5607Z" fill="white"/>
<path d="M18.8571 32.6323C18.8099 32.5886 18.7839 32.5633 18.7698 32.5485C18.7566 32.5388 18.741 32.5271 18.7221 32.5128C18.5965 32.4175 18.4759 32.3241 18.3596 32.2213L6.54054 46.6738L6.54952 46.6827C6.47802 46.7472 6.4219 46.8267 6.38497 46.9155C6.34816 47.0042 6.33144 47.1001 6.33626 47.196C6.34098 47.292 6.36702 47.3858 6.41259 47.4704C6.45804 47.5552 6.5218 47.6287 6.59924 47.6858C6.6768 47.7427 6.76592 47.7819 6.86043 47.8003C6.95482 47.8187 7.05225 47.8159 7.14541 47.792C7.23868 47.7683 7.32544 47.724 7.39952 47.6626C7.47349 47.6011 7.53298 47.5241 7.57349 47.4369L19.4786 32.9373C19.2458 32.8989 19.0296 32.7929 18.8571 32.6323Z" fill="white"/>
<path d="M18.311 14.6378C18.4763 14.4779 18.6856 14.3709 18.9119 14.3301L7.78056 0.717651L6.77724 1.58279L17.9983 15.2499C18.033 15.0173 18.1428 14.8023 18.311 14.6378Z" fill="white"/>
<path d="M33.8571 14.7248C34.0208 14.8825 34.1295 15.0885 34.167 15.3126L45.4055 1.62429L44.4025 0.759155L33.2357 14.415C33.469 14.4543 33.6854 14.5622 33.8571 14.7248Z" fill="white"/>
<path d="M45.534 46.6811L45.5431 46.6721L33.7711 32.2765C33.7484 32.3517 33.717 32.424 33.6779 32.4922C33.5945 32.6414 33.4757 32.768 33.3322 32.8611C33.1886 32.9542 33.0244 33.0108 32.8539 33.0262C32.8124 33.0475 32.7694 33.0659 32.7253 33.0813L44.5106 47.4353C44.5511 47.5225 44.6106 47.5996 44.6846 47.661C44.7586 47.7224 44.8454 47.7667 44.9387 47.7905C45.0318 47.8144 45.1293 47.8172 45.2238 47.7988C45.3183 47.7804 45.4074 47.7413 45.4848 47.6842C45.5624 47.6272 45.6262 47.5536 45.6716 47.4689C45.7172 47.3841 45.7432 47.2904 45.7479 47.1944C45.7528 47.0984 45.736 47.0025 45.6991 46.9137C45.6622 46.8249 45.6059 46.7455 45.5345 46.6811H45.534Z" fill="white"/>
<path d="M81.238 31.9852C81.238 34.3715 81.3352 36.0529 81.5298 37.0294C81.7243 38.0058 82.0547 38.7185 82.5209 39.1676C83.0181 39.6329 83.6867 40.0243 84.5263 40.3419C85.3659 40.6594 86.4387 40.9189 87.7445 41.1203L87.7212 41.982C85.3735 41.9513 83.5856 41.928 82.3576 41.9122C81.1295 41.8964 79.9946 41.8885 78.953 41.8889C77.0094 41.8889 74.1099 41.9199 70.2543 41.982H70.1144V41.1203C71.4357 40.9191 72.52 40.6596 73.3674 40.3419C74.2149 40.0241 74.8794 39.6326 75.3613 39.1676C75.843 38.7186 76.1812 38.0059 76.3757 37.0294C76.5701 36.0528 76.6674 34.3714 76.6676 31.9852V10.3551H73.3564C70.3715 10.3551 68.1949 10.8131 66.8268 11.7291C65.4586 12.6452 64.4713 14.2523 63.8648 16.5504L63.0487 16.4106L63.9578 7.21155H64.5175L65.9632 8.74869C67.4557 8.74869 69.6556 8.75642 72.563 8.77189C75.4703 8.78736 77.6469 8.7951 79.0925 8.79521C80.5227 8.79521 82.6681 8.78747 85.5288 8.77189C88.3893 8.75631 90.527 8.74858 91.9417 8.74869L93.5274 7.21155H93.9005L94.7167 16.5041L93.9472 16.6665C93.3874 14.4006 92.4119 12.7823 91.0206 11.8117C89.6293 10.841 87.5654 10.3556 84.8292 10.3551H81.2374L81.238 31.9852Z" fill="white"/>
<path d="M94.9415 41.9855L94.9182 41.1238C96.364 41.0618 97.324 40.7676 97.7982 40.2409C98.2723 39.7141 98.5094 38.3436 98.5094 36.129L98.4627 14.1784C98.4627 13.2003 98.3733 12.459 98.1945 11.9546C98.0036 11.432 97.6873 10.9641 97.2734 10.5918L96.0374 9.54387V9.12464L101.891 6.74915L102.38 6.98196L102.101 23.0495C103.733 21.9479 105.241 21.1178 106.625 20.559C108.008 20.0002 109.237 19.7209 110.309 19.7211C112.532 19.7211 114.156 20.3488 115.183 21.6043C116.209 22.8597 116.762 24.9056 116.839 27.7422L117.049 36.7097C117.111 38.6302 117.366 39.8112 117.818 40.2526C118.269 40.694 119.186 40.9844 120.57 41.1237V41.9854C119.978 41.9547 119.314 41.9313 118.575 41.9155C117.838 41.8997 116.707 41.8919 115.183 41.8922C113.659 41.8922 112.501 41.9 111.708 41.9155C110.916 41.9311 110.185 41.9543 109.516 41.9854L109.493 41.1237C110.97 40.9691 111.953 40.644 112.442 40.1485C112.933 39.6529 113.178 38.6308 113.178 37.0823C113.178 36.9584 113.17 36.7259 113.154 36.385C113.138 36.0442 113.131 35.7731 113.131 35.5719L113.037 30.0422C112.976 27.3317 112.474 25.3688 111.533 24.1536C110.593 22.9384 109.12 22.3303 107.114 22.3295C106.31 22.3338 105.512 22.4632 104.747 22.7131C103.853 23.0122 102.996 23.4135 102.194 23.9092V36.0826C102.194 38.1271 102.446 39.4629 102.952 40.0903C103.457 40.7177 104.464 41.0622 105.972 41.1239L105.948 41.9856C105.295 41.9549 104.58 41.9316 103.803 41.9158C103.026 41.8999 101.867 41.8921 100.328 41.8924C98.8357 41.8924 97.7165 41.9002 96.9703 41.9158C96.2241 41.9313 95.5479 41.9545 94.9415 41.9855Z" fill="white"/>
<path d="M139.065 36.2586L139.741 36.8409C138.513 38.6269 137.121 39.9776 135.567 40.8931C134.037 41.8025 132.287 42.2777 130.507 42.2671C127.678 42.2671 125.298 41.2308 123.371 39.1583C121.444 37.0858 120.479 34.4968 120.479 31.3912C120.479 28.1308 121.51 25.371 123.569 23.1118C125.629 20.8525 128.135 19.7231 131.09 19.7234C133.468 19.7234 135.384 20.391 136.837 21.7263C138.291 23.0615 139.08 24.8859 139.205 27.1991C136.547 27.106 134.024 27.0361 131.637 26.9895C129.251 26.943 126.985 26.9197 124.84 26.9197C124.732 27.3486 124.654 27.7843 124.607 28.2239C124.558 28.6804 124.536 29.139 124.537 29.598C124.537 32.3773 125.345 34.683 126.961 36.5148C128.579 38.3466 130.592 39.2627 133.001 39.2629C134.157 39.2724 135.299 39.0134 136.336 38.5063C137.402 37.9695 138.335 37.2015 139.065 36.2586ZM134.378 25.732C134.066 24.1483 133.545 22.9333 132.816 22.087C132.085 21.2407 131.191 20.8176 130.133 20.818C128.921 20.818 127.853 21.2799 126.927 22.2039C126.002 23.1279 125.369 24.3816 125.026 25.9649L134.378 25.732Z" fill="white"/>
<path d="M188.958 38.2638V39.1241C186.315 40.3182 183.804 41.2062 181.426 41.7879C179.177 42.3534 176.867 42.6464 174.547 42.6605C168.81 42.6605 164.201 41.1117 160.719 38.0141C157.237 34.9165 155.496 30.8371 155.496 25.776C155.496 23.2142 155.97 20.8658 156.918 18.7308C157.867 16.5957 159.289 14.6976 161.186 13.0364C163.03 11.4162 165.172 10.1702 167.493 9.36813C169.864 8.53808 172.441 8.12277 175.224 8.12244C177.154 8.12658 179.081 8.29013 180.984 8.6115C182.993 8.9498 184.973 9.44032 186.907 10.0787C186.829 11.3521 186.763 12.6913 186.709 14.0962C186.654 15.5012 186.611 17.0033 186.58 18.6024H185.857C185.142 15.5908 183.825 13.2892 181.905 11.6974C179.985 10.1057 177.548 9.31007 174.594 9.31063C170.521 9.31063 167.233 10.6731 164.73 13.398C162.227 16.1229 160.976 19.7211 160.976 24.1926C160.967 26.3631 161.366 28.516 162.153 30.5391C162.939 32.5505 164.098 34.3955 165.57 35.9768C167.062 37.5917 168.896 38.8377 171.073 39.7149C173.305 40.6027 175.689 41.0495 178.092 41.0306C179.647 41.0306 180.684 40.7905 181.206 40.3102C181.727 39.8298 181.987 38.799 181.987 37.2176V32.6605C181.987 30.7699 181.536 29.433 180.635 28.6499C179.732 27.8669 178.053 27.3746 175.597 27.1732V26.3116C176.871 26.3363 178.119 26.358 179.339 26.3765C180.561 26.3949 181.777 26.4044 182.989 26.4047C184.233 26.4047 185.458 26.397 186.662 26.3815C187.867 26.366 189.045 26.3427 190.195 26.3116L190.219 27.1732C188.772 27.3596 187.805 27.7744 187.315 28.4175C186.826 29.0605 186.58 30.4206 186.58 32.4977V38.2639L188.958 38.2638Z" fill="white"/>
<path d="M195.869 29.2067V16.9661C195.869 14.8874 195.781 13.4834 195.601 12.7543C195.423 12.0251 195.1 11.4742 194.634 11.1017C194.033 10.6386 193.354 10.2879 192.628 10.0661C191.756 9.80676 190.856 9.65431 189.946 9.61227V8.75061C190.957 8.78177 192.037 8.80498 193.188 8.82033C194.338 8.83569 196.08 8.84342 198.412 8.84365C200.774 8.84365 202.543 8.83591 203.717 8.82033C204.891 8.80475 205.983 8.78155 206.994 8.75061L207.016 9.61227C204.405 9.69007 202.644 10.2098 201.735 11.1716C200.825 12.1334 200.37 14.0494 200.37 16.9196V28.7414C200.37 31.0688 200.545 32.8607 200.895 34.1172C201.209 35.3089 201.814 36.4041 202.655 37.3048C203.604 38.3137 204.816 39.0895 206.293 39.6323C207.77 40.1752 209.427 40.4467 211.261 40.4469C213.562 40.4469 215.446 40.0322 216.916 39.2027C218.385 38.3732 219.556 37.0427 220.425 35.2112C220.86 34.2961 221.167 32.9734 221.346 31.2431C221.525 29.5128 221.614 26.7553 221.614 22.9706C221.614 19.2786 221.516 16.7112 221.322 15.2684C221.128 13.8257 220.797 12.755 220.331 12.0565C219.759 11.2394 218.955 10.6116 218.022 10.2533C217.044 9.85787 215.792 9.64445 214.269 9.61317V8.75151C215.123 8.78267 216.032 8.80587 216.996 8.82123C217.959 8.83659 219.421 8.84432 221.381 8.84454C223.355 8.84454 224.827 8.83681 225.798 8.82123C226.77 8.80565 227.668 8.78245 228.492 8.75151V9.61317H228.399C226.518 9.61317 225.227 10.3346 224.528 11.7775C223.829 13.2204 223.479 16.8587 223.478 22.6926C223.478 23.1886 223.471 23.9333 223.456 24.9264C223.393 30.326 222.943 33.9954 222.103 35.9347C221.139 38.1691 219.545 39.864 217.322 41.0196C215.098 42.1752 212.333 42.7527 209.022 42.7521C206.364 42.7521 204.094 42.3952 202.213 41.6813C200.332 40.9674 198.871 39.9045 197.829 38.4927C197.112 37.4935 196.601 36.3624 196.325 35.1648C196.021 33.908 195.869 31.922 195.869 29.2067Z" fill="white"/>
<path d="M230.277 41.9839V41.1223C232.701 40.9831 234.342 40.4835 235.196 39.6234C236.051 38.7633 236.479 36.854 236.479 33.8954V16.816C236.479 13.8726 236.059 11.9748 235.22 11.1225C234.38 10.2703 232.732 9.76685 230.277 9.61227V8.75061C231.24 8.75061 232.682 8.76608 234.602 8.79713C236.523 8.82818 237.956 8.84365 238.905 8.84365C239.853 8.84365 241.264 8.82818 243.137 8.79713C245.011 8.76608 246.406 8.75061 247.323 8.75061V9.61227C244.867 9.7673 243.218 10.2786 242.38 11.1458C241.54 12.0131 241.12 13.9032 241.12 16.816V33.8953C241.12 36.8391 241.543 38.7484 242.391 39.6232C243.238 40.4981 244.883 40.9977 247.323 41.1222L247.299 41.9838C244.936 41.9373 243.175 41.9102 242.018 41.9026C240.86 41.8949 239.776 41.891 238.764 41.8907C237.754 41.8907 236.669 41.8946 235.512 41.9026C234.353 41.9105 232.608 41.9376 230.277 41.9839Z" fill="white"/>
<path d="M249.227 41.9864V41.1247C251.699 40.9245 253.359 40.4005 254.205 39.5525C255.053 38.7045 255.477 37.055 255.477 34.6038V15.763C255.477 13.5664 255.08 12.0584 254.287 11.239C253.495 10.4196 251.978 9.87817 249.74 9.61475V8.75308C252.414 8.72226 255.259 8.67944 258.275 8.62463C261.291 8.56981 263.001 8.5428 263.406 8.54347C270.37 8.54347 275.826 10.0573 279.776 13.0848C283.725 16.1124 285.699 20.2578 285.699 25.5211C285.699 30.6759 283.814 34.732 280.044 37.6894C276.274 40.6468 271.077 42.1257 264.455 42.1262C263.179 42.1262 260.827 42.1067 257.4 42.0677C253.973 42.0287 251.248 42.0015 249.227 41.9864ZM260.071 33.2531C260.071 36.3431 260.568 38.3963 261.564 39.4127C262.558 40.4292 264.416 40.9378 267.136 40.9384C270.883 40.9384 273.946 39.5955 276.325 36.9095C278.703 34.2235 279.893 30.7146 279.893 26.3829C279.893 21.1507 278.179 17.0518 274.75 14.0862C271.322 11.1205 266.569 9.63784 260.491 9.63795H260.071V33.2531Z" fill="white"/>
<path d="M288.729 25.1953C288.729 20.025 290.374 15.8951 293.661 12.8054C296.949 9.71577 301.337 8.1709 306.825 8.1709C312.219 8.1709 316.537 9.76611 319.778 12.9565C323.021 16.1469 324.642 20.3896 324.642 25.6843C324.642 30.7771 322.99 34.872 319.685 37.969C316.382 41.0661 312.001 42.6149 306.545 42.6154C301.15 42.6154 296.832 41.0317 293.591 37.8644C290.351 34.6971 288.73 30.4741 288.729 25.1953ZM294.42 24.5198C294.42 29.4263 295.602 33.4281 297.964 36.525C300.327 39.6219 303.343 41.1707 307.012 41.1714C310.618 41.1714 313.519 39.7974 315.711 37.0493C317.903 34.3012 318.999 30.6371 318.998 26.0569C319.005 24.0751 318.746 22.1012 318.228 20.188C317.715 18.3096 316.985 16.6561 316.036 15.2275C314.761 13.3024 313.328 11.874 311.734 10.9423C310.14 10.0108 308.333 9.54506 306.313 9.54494C302.751 9.54494 299.88 10.919 297.696 13.6671C295.512 16.4152 294.42 20.0328 294.419 24.5198H294.42Z" fill="white"/>
<path d="M324.541 41.9839L324.517 41.1223C326.973 40.9984 328.649 40.1973 329.542 38.7191C330.437 37.2409 330.883 34.1874 330.883 29.5587V20.4096C330.883 19.9919 330.891 19.4348 330.907 18.7383C330.923 18.0417 330.931 17.554 330.929 17.275C330.929 15.7736 330.775 14.6127 330.464 13.7921C330.13 12.9399 329.604 12.1766 328.925 11.5627C328.287 10.9865 327.548 10.5338 326.744 10.2279C325.836 9.88175 324.881 9.67438 323.911 9.6125V8.75083C324.424 8.75083 325.17 8.7663 326.149 8.79735C327.129 8.8284 327.844 8.84387 328.295 8.84387C328.761 8.84387 329.438 8.8284 330.323 8.79735C331.21 8.7663 331.855 8.75083 332.26 8.75083L356.139 34.2493V23.2655C356.139 19.148 356.025 16.3693 355.8 14.9296C355.574 13.4898 355.175 12.4218 354.599 11.7256C354.117 11.1061 353.433 10.6262 352.547 10.2856C351.661 9.94508 350.565 9.72067 349.258 9.61227V8.75061C350.098 8.78177 350.999 8.80498 351.963 8.82033C352.928 8.83569 354.334 8.84342 356.185 8.84365C358.019 8.84365 359.375 8.83591 360.254 8.82033C361.131 8.80542 361.936 8.78211 362.667 8.75061V9.61227H362.294C360.599 9.61227 359.414 10.4637 358.737 12.1666C358.061 13.8694 357.724 17.0351 357.724 21.6636V31.8342C357.724 34.2031 357.743 36.303 357.782 38.1339C357.821 39.9647 357.872 41.6595 357.934 43.2183H357.653C356.69 42.1043 355.644 40.9044 354.517 39.6184C353.39 38.3325 352.765 37.6186 352.639 37.4768L332.446 16.1371V25.5418C332.446 30.1708 332.536 33.2863 332.714 34.8881C332.893 36.4899 333.2 37.6391 333.636 38.3356C334.04 39.0007 334.693 39.5503 335.594 39.9842C336.495 40.4181 337.771 40.7896 339.418 41.0985V41.9841H339.279C335.998 41.9222 333.55 41.8911 331.933 41.8909C331.032 41.8909 330.06 41.8986 329.018 41.9142C327.978 41.9298 326.485 41.953 324.541 41.9839Z" fill="white"/>
</svg>
