<svg width="30" height="27" viewBox="0 0 30 27" fill="none" xmlns="http://www.w3.org/2000/svg">
<path d="M4.57512 0.336514C4.63267 0.413747 4.47369 0.629111 4.22014 0.817635C3.96658 1.00616 3.7143 1.09618 3.65668 1.01907C3.59906 0.941967 3.7581 0.726475 4.01165 0.537952C4.26521 0.349428 4.5175 0.259281 4.57512 0.336514Z" fill="white"/>
<path d="M4.28186 0.368564C4.28186 0.44146 4.26018 0.512717 4.21967 0.573325C4.1791 0.633934 4.12148 0.681179 4.05404 0.709071C3.98659 0.73697 3.91236 0.744269 3.8408 0.730044C3.76923 0.715826 3.70343 0.680723 3.65184 0.629179C3.60024 0.57763 3.56506 0.511963 3.55086 0.440466C3.5366 0.368969 3.54388 0.294864 3.57184 0.227519C3.59979 0.160175 3.64708 0.102612 3.70774 0.0621151C3.76847 0.0216123 3.83978 3.15291e-09 3.91281 3.15291e-09C3.96124 -6.32739e-06 4.00922 0.009521 4.05404 0.0280378C4.09879 0.0465547 4.13948 0.0737064 4.17378 0.107929C4.20801 0.142159 4.2352 0.182788 4.25377 0.227507C4.27228 0.272232 4.28186 0.320161 4.28186 0.368564Z" fill="white"/>
<path d="M25.1849 0.394191C25.1849 0.467087 25.2065 0.538344 25.247 0.598952C25.2876 0.659561 25.3452 0.706806 25.4127 0.734698C25.4801 0.762597 25.5543 0.769896 25.6259 0.755671C25.6975 0.741453 25.7633 0.70635 25.8149 0.654807C25.8665 0.603257 25.9016 0.53759 25.9158 0.466093C25.9301 0.394603 25.9228 0.320491 25.8949 0.253147C25.8669 0.185802 25.8196 0.128239 25.759 0.0877423C25.6982 0.0472395 25.6269 0.025627 25.5539 0.025627C25.456 0.025646 25.3622 0.0644776 25.293 0.133594C25.2238 0.202711 25.1849 0.296447 25.1849 0.394191Z" fill="white"/>
<path d="M2.25927 18.2681L2.2031 18.2392C2.18508 18.2288 2.17064 18.2132 2.16167 18.1944C2.15271 18.1756 2.14966 18.1546 2.1529 18.134C2.17464 17.8524 2.17781 17.1465 1.74037 16.6759C1.29969 16.202 1.28105 15.5048 1.26495 14.8893C1.26159 14.7646 1.25861 14.6468 1.25228 14.5339C1.22534 14.0672 1.13818 14.0089 0.849568 13.8158C0.762408 13.7575 0.65395 13.6849 0.529138 13.5876C-0.0920708 13.1036 -0.035021 10.9329 0.0555614 10.1969C0.214033 8.91381 0.449966 8.06349 0.757147 7.66878C1.21355 7.0827 1.42495 6.60095 1.36999 6.52663C1.36446 6.5246 1.35864 6.5234 1.35275 6.52321C0.973999 6.49415 0.997136 6.14622 1.00823 5.97878C1.01007 5.9515 1.01184 5.92655 1.01184 5.90541C1.01184 5.74379 1.30039 5.07434 1.38888 4.87296C2.05522 3.36161 3.9757 1.00728 3.99504 0.983668L4.09418 0.862502L4.15605 1.00627C5.38883 3.87356 6.2693 4.31214 6.97716 4.66488C7.04314 4.6978 7.1078 4.73002 7.17119 4.76325L7.26215 4.81099L7.20751 4.8979C6.4272 6.13704 4.35458 7.62915 3.99225 7.70461L3.95986 7.71132L3.9662 7.71639L3.99891 7.7412C4.16904 7.86946 4.40199 8.04507 4.41524 8.54771C4.4269 8.99085 3.73337 9.92144 3.06265 10.822C2.94386 10.9816 2.82881 11.136 2.72346 11.2804C2.16913 12.04 2.30085 12.1837 2.5191 12.4213C2.54204 12.4462 2.56562 12.472 2.5894 12.4991C2.89366 12.8461 2.89322 12.9193 2.58388 14.0649C2.34934 14.9338 2.4088 15.1805 2.52734 15.672C2.56131 15.8126 2.59973 15.972 2.637 16.1697C2.78913 16.976 2.41812 18.1544 2.3082 18.2331L2.25927 18.2681ZM4.04435 1.22581C3.64393 1.72649 2.13255 3.65743 1.56231 4.94975C1.38875 5.34484 1.20137 5.8228 1.20137 5.90566C1.20137 5.93035 1.19947 5.95966 1.19738 5.99163C1.18198 6.22263 1.20213 6.3212 1.36669 6.33386C1.40435 6.33475 1.441 6.34621 1.4724 6.36697C1.50381 6.3878 1.52869 6.41698 1.54418 6.45129C1.68566 6.77079 0.986931 7.68246 0.906807 7.78539C0.624982 8.14724 0.395704 8.98921 0.243762 10.2201C0.177559 10.8279 0.17013 11.4407 0.221576 12.05C0.286106 12.7821 0.436717 13.275 0.645646 13.4379C0.765007 13.531 0.865921 13.5984 0.954856 13.658C1.27814 13.8742 1.41043 13.9835 1.44162 14.523C1.44834 14.6388 1.45151 14.758 1.45487 14.8843C1.4704 15.4659 1.48802 16.1251 1.87957 16.5467C2.18282 16.8729 2.29705 17.2932 2.33445 17.6384C2.43815 17.2459 2.53881 16.6738 2.45026 16.2046C2.41387 16.0115 2.37603 15.8547 2.3425 15.7162C2.22035 15.2097 2.15303 14.9312 2.40031 14.0151C2.69823 12.9115 2.68885 12.901 2.44626 12.6239C2.42357 12.598 2.40094 12.5733 2.37895 12.5494C2.09668 12.2422 1.95494 12.0113 2.56974 11.1684C2.67548 11.0234 2.79091 10.8684 2.91008 10.7085C3.50042 9.91593 4.2349 8.92957 4.22514 8.5524C4.2143 8.14136 4.03903 8.00911 3.88436 7.89257L3.85026 7.86667C3.81983 7.84331 3.79257 7.82489 3.77045 7.8097C3.71309 7.77096 3.65382 7.73095 3.66865 7.6558C3.68481 7.57401 3.74706 7.56085 3.9532 7.51811C4.23015 7.46051 6.17814 6.09121 6.98952 4.88315C6.95732 4.86688 6.92473 4.85074 6.89184 4.83435C6.16908 4.47433 5.27213 4.02758 4.04435 1.22581Z" fill="white"/>
<path d="M5.25163 3.30855C5.25163 3.30855 5.6293 3.96851 5.16586 6.77135C4.39335 7.37136 4.27322 7.45708 4.27322 7.45708C4.27322 7.45708 4.56481 6.03422 4.53071 4.7828C4.49661 3.53138 3.99 1.11425 3.99 1.11425L4.0686 1.04373L5.25163 3.30855Z" fill="white"/>
<path d="M3.20029 2.18568C3.20029 2.18568 3.92127 4.37143 3.741 7.6371C3.9046 7.78334 4.05141 7.94717 4.17876 8.12569C4.09844 8.04637 4.00095 7.98655 3.89383 7.95091C3.78664 7.9152 3.67273 7.90463 3.56078 7.91995C3.17455 7.97142 2.8656 8.15139 2.81406 7.40572C2.76253 6.66005 3.14882 4.80855 2.24765 3.54859C2.89133 2.5457 3.20029 2.18568 3.20029 2.18568Z" fill="white"/>
<path d="M1.52678 4.75712C1.52678 4.75712 2.11896 5.32282 2.2477 6.32564C2.37643 7.32846 2.29916 8.43421 3.0971 8.53708C3.89503 8.63995 4.3205 8.54974 4.3205 8.54974L3.86987 9.61688C3.86987 9.61688 2.78846 9.82263 2.3765 8.84544C1.96454 7.86826 2.19623 6.58304 1.35937 6.42851C0.986073 6.29993 1.10619 5.90567 1.10619 5.90567L1.52678 4.75712Z" fill="white"/>
<path d="M1.24347 7.14859C1.24347 7.14859 1.70691 7.45714 1.80991 8.74287C1.91292 10.0286 3.20028 10.4657 3.20028 10.4657L2.47937 11.4685C2.47937 11.4685 1.83565 10.8514 1.68117 10.2857C1.52669 9.71999 1.57816 8.51142 0.445091 8.61442C0.548224 8.1257 1.06319 7.40605 1.24347 7.14859Z" fill="white"/>
<path d="M0.265175 9.257C0.265175 9.257 0.908886 10.08 1.19211 10.7227C1.47533 11.3655 2.35077 12.4456 2.35077 12.4456L2.68546 12.7799L2.71126 13.217C2.71126 13.217 2.32503 12.9856 1.96456 12.7542C1.60407 12.5228 1.42386 12.2142 1.19211 11.9059C0.960358 11.5976 0.651401 11.3145 0.0849607 11.0316C0.108903 10.437 0.169084 9.84435 0.265175 9.257Z" fill="white"/>
<path d="M0.110686 11.7771C0.110686 11.7771 0.728661 12.6257 0.960093 12.7543C1.19153 12.8828 1.9643 13.1142 2.17031 13.4999C2.37635 13.8857 2.50503 14.1428 2.50503 14.1428L2.32481 15.0685C2.32481 15.0685 2.09304 14.3228 1.73255 14.0914C1.37206 13.86 0.496469 13.5514 0.393652 13.32C0.290836 13.0885 0.110686 11.7771 0.110686 11.7771Z" fill="white"/>
<path d="M1.29512 14.4513C1.29512 14.4513 1.73281 15.1714 1.96456 15.4799C2.19631 15.7885 2.58253 16.4056 2.58253 16.4056L2.50526 17.2799C2.50526 17.2799 2.45379 16.6371 2.14478 16.4316C1.83576 16.2261 1.39812 16.0201 1.39812 15.9173C1.39812 15.8145 1.29512 14.4513 1.29512 14.4513Z" fill="white"/>
<path d="M14.7612 20.187C13.4063 20.187 12.0819 19.7858 10.9554 19.0341C9.82882 18.2824 8.95082 17.2139 8.4323 15.9638C7.91379 14.7137 7.77813 13.3381 8.04246 12.011C8.30673 10.6839 8.95919 9.46492 9.91725 8.50813C10.8752 7.55133 12.0959 6.89979 13.4247 6.63581C14.7535 6.37182 16.1309 6.5073 17.3827 7.02507C18.6344 7.54291 19.7043 8.41975 20.457 9.54482C21.2097 10.6699 21.6115 11.9926 21.6115 13.3457C21.6095 15.1595 20.8871 16.8984 19.6028 18.1809C18.3186 19.4635 16.5774 20.1849 14.7612 20.187ZM14.7612 6.88422C13.4816 6.88422 12.2307 7.26316 11.1666 7.97313C10.1027 8.68317 9.27341 9.69232 8.78367 10.873C8.29399 12.0537 8.16582 13.3529 8.41544 14.6063C8.66513 15.8597 9.28133 17.0111 10.1862 17.9147C11.091 18.8184 12.2439 19.4338 13.499 19.6831C14.754 19.9324 16.0549 19.8045 17.2372 19.3154C18.4194 18.8263 19.4299 17.9981 20.1408 16.9355C20.8517 15.873 21.2312 14.6236 21.2312 13.3457C21.2293 11.6326 20.547 9.99023 19.334 8.77888C18.1211 7.56754 16.4766 6.88618 14.7612 6.88422Z" fill="white"/>
<path d="M14.7785 19.5425C13.5546 19.5425 12.3583 19.1801 11.3407 18.5011C10.3231 17.822 9.53009 16.8569 9.06171 15.7277C8.5934 14.5985 8.47087 13.356 8.70965 12.1573C8.94837 10.9586 9.53776 9.85744 10.4031 8.9932C11.2685 8.12901 12.371 7.54046 13.5714 7.30199C14.7717 7.06358 16.0158 7.18595 17.1465 7.65372C18.2772 8.12148 19.2436 8.91356 19.9235 9.9298C20.6034 10.946 20.9662 12.1408 20.9662 13.363C20.9643 15.0014 20.3118 16.5721 19.1518 17.7305C17.9918 18.889 16.419 19.5407 14.7785 19.5425ZM14.7785 7.30991C13.5797 7.30991 12.4079 7.66492 11.4112 8.33001C10.4145 8.9951 9.6376 9.94044 9.17885 11.0465C8.72011 12.1525 8.60012 13.3696 8.83396 14.5437C9.0678 15.7179 9.64508 16.7965 10.4926 17.643C11.3403 18.4895 12.4202 19.066 13.596 19.2996C14.7716 19.5332 15.9903 19.4133 17.0978 18.9552C18.2053 18.4971 19.1519 17.7213 19.8179 16.7259C20.4839 15.7305 20.8394 14.5602 20.8395 13.363C20.8377 11.7582 20.1985 10.2196 19.0623 9.08486C17.926 7.95005 16.3854 7.31174 14.7785 7.30991Z" fill="white"/>
<path d="M28.6973 19.2707L28.5198 19.2115C28.5242 19.1822 28.9529 16.2724 28.2567 15.0556C27.9725 14.559 27.5939 14.0758 27.2279 13.6084C26.6633 12.8876 26.1757 12.265 26.1757 11.7685C26.1842 11.4277 26.2288 11.0887 26.3088 10.7572C26.3758 10.4376 26.4336 10.1615 26.3839 9.93767C26.3542 9.8089 26.3181 9.68179 26.2753 9.55682C26.1972 9.31721 26.1087 9.04576 26.0217 8.38662C25.8847 7.34607 25.8014 6.92287 25.1089 6.90059C24.2726 6.87362 23.7479 6.68244 22.2341 4.9656L22.1505 4.87064L22.2649 4.81683C22.278 4.8105 23.5806 4.18903 24.278 3.16089C25.3741 1.54489 25.4286 1.04377 25.4291 1.03889L25.4536 0.756297L25.6045 0.995021C25.9695 1.57686 27.0371 3.09106 27.5872 3.11062L27.5957 3.11094C28.3691 3.13848 28.5212 3.18127 28.7331 4.37173C28.7775 4.62014 28.8266 4.93452 28.8837 5.29858C29.0929 6.63319 29.3797 8.46101 29.764 9.27651C30.0308 9.84277 29.7859 10.6655 29.5785 11.235L29.5715 11.254C29.0854 12.5604 29.4803 13.4164 29.673 13.7239C30.1249 14.4461 30.0964 15.6022 29.5881 17.1599C29.3471 17.8857 29.0492 18.5915 28.6973 19.2707ZM22.4586 4.93243C23.8659 6.51538 24.3338 6.68561 25.1151 6.7108C25.9967 6.73916 26.0818 7.38469 26.2105 8.36193C26.2951 9.0036 26.3807 9.26631 26.4562 9.49807C26.5009 9.6288 26.5387 9.7618 26.5695 9.89652C26.6282 10.1602 26.5665 10.4549 26.495 10.7962C26.4179 11.1148 26.3746 11.4408 26.3658 11.7685C26.3658 12.1996 26.8573 12.8271 27.3777 13.4914C27.7479 13.9641 28.1308 14.4528 28.4217 14.9614C28.9654 15.9115 28.8675 17.7563 28.775 18.6834C29.2746 17.6124 30.2996 15.0838 29.5116 13.8246C29.3043 13.4933 28.8777 12.5733 29.3934 11.1879L29.3998 11.1704C29.5126 10.8605 29.8562 9.91779 29.5919 9.35754C29.1961 8.51747 28.9069 6.67408 28.6958 5.32815C28.6388 4.96509 28.5897 4.6516 28.5458 4.40522C28.3541 3.32814 28.2817 3.32555 27.5887 3.30092H27.5801C27.252 3.28927 26.7906 2.91045 26.2086 2.17522C25.9341 1.82844 25.6952 1.47975 25.56 1.27629C25.4586 1.5649 25.1836 2.16459 24.4352 3.26794C23.8229 4.17048 22.7993 4.75486 22.4586 4.93243Z" fill="white"/>
<path d="M24.0361 3.65032C24.1661 3.8603 24.4315 4.1579 24.71 4.05465C24.8012 4.01895 24.8791 3.95577 24.9327 3.87385C24.9863 3.79193 25.013 3.69537 25.009 3.59759C24.9934 3.43582 24.9331 3.28159 24.8346 3.15217C24.7756 3.06577 24.7082 2.98533 24.6335 2.91199C24.6068 2.88528 24.5705 2.87027 24.5327 2.87027C24.4948 2.87027 24.4586 2.88528 24.4318 2.91199C24.4051 2.9387 24.39 2.97493 24.39 3.01271C24.39 3.05049 24.4051 3.08672 24.4318 3.11343C24.4779 3.15913 24.5211 3.20761 24.5613 3.25859C24.5793 3.28055 24.5407 3.23041 24.5576 3.2539C24.5623 3.26023 24.5671 3.26656 24.5718 3.27289C24.5798 3.28387 24.5877 3.29495 24.5954 3.30613C24.6148 3.33417 24.6331 3.3631 24.6499 3.39248C24.6682 3.41885 24.6828 3.44761 24.6932 3.47794C24.6928 3.47585 24.6805 3.44508 24.6889 3.46794C24.6919 3.47604 24.6953 3.48402 24.6981 3.49218C24.7039 3.50826 24.709 3.52459 24.7134 3.54112C24.7161 3.55131 24.728 3.58049 24.724 3.59037C24.7264 3.58404 24.7213 3.55726 24.7222 3.57708C24.7222 3.5853 24.7237 3.59347 24.724 3.60164C24.7247 3.61664 24.724 3.63139 24.7233 3.64633C24.7224 3.67368 24.7276 3.64 24.725 3.63658C24.7278 3.64019 24.7193 3.6638 24.7181 3.66824C24.7162 3.67457 24.7138 3.6809 24.7117 3.68773C24.7061 3.70704 24.7162 3.69906 24.7153 3.68064C24.7159 3.6921 24.6979 3.7123 24.6923 3.72179C24.6778 3.74711 24.6947 3.71647 24.6961 3.71831C24.6904 3.72577 24.6842 3.73281 24.6776 3.73939C24.6709 3.74648 24.6639 3.75332 24.6567 3.7599C24.6503 3.7656 24.625 3.78377 24.6535 3.76395C24.6459 3.76921 24.6385 3.77427 24.6307 3.77921L24.623 3.78351C24.6092 3.79029 24.6129 3.78908 24.634 3.77991C24.6217 3.78573 24.6086 3.7894 24.5952 3.79079C24.5926 3.787 24.636 3.79079 24.6019 3.78864C24.5968 3.7882 24.5916 3.78807 24.5864 3.78833C24.5591 3.79105 24.6196 3.79782 24.5933 3.78953C24.5834 3.78636 24.5725 3.78415 24.5625 3.78155C24.526 3.77218 24.585 3.79573 24.551 3.77737C24.5374 3.76997 24.5237 3.76288 24.5105 3.75452C24.4967 3.74667 24.4836 3.73755 24.4714 3.7273C24.5045 3.75813 24.4607 3.71717 24.453 3.71021C24.4257 3.68522 24.3997 3.65869 24.3753 3.63076C24.3648 3.61892 24.3547 3.60683 24.3447 3.59461C24.3406 3.5885 24.336 3.58275 24.3309 3.57739C24.3346 3.57676 24.3533 3.60708 24.3365 3.58442C24.3175 3.5591 24.2988 3.53339 24.2822 3.50649C24.2631 3.47387 24.2318 3.45015 24.1952 3.44057C24.1587 3.43099 24.1197 3.43631 24.087 3.45537C24.0544 3.47444 24.0307 3.50568 24.0211 3.54223C24.0115 3.57878 24.0171 3.6177 24.0361 3.65032Z" fill="white"/>
<path d="M25.9174 4.34229C25.829 4.21422 25.7257 4.09698 25.6097 3.9931C25.5548 3.93809 25.4819 3.90453 25.4043 3.89852C25.3445 3.8982 25.2851 3.9065 25.2277 3.92302C25.1341 3.94859 25.0522 4.00557 24.9959 4.08438C24.9653 4.13522 24.9453 4.19175 24.9372 4.2505C24.9291 4.30925 24.933 4.36901 24.9487 4.42623C24.983 4.56323 25.055 4.68794 25.1566 4.78612C25.2457 4.88355 25.3613 4.95287 25.4893 4.98566C25.562 5.00035 25.6373 4.99516 25.7073 4.97066C25.7773 4.94616 25.8394 4.90318 25.887 4.84639C26.0074 4.6961 25.9981 4.50923 25.9174 4.34229C25.8982 4.30981 25.8669 4.28627 25.8303 4.27671C25.7938 4.26715 25.755 4.27234 25.7223 4.2912C25.6903 4.31095 25.6672 4.34216 25.6577 4.37844C25.6482 4.41471 25.653 4.45327 25.6711 4.48612C25.6729 4.48986 25.6826 4.51144 25.6736 4.48948C25.6761 4.49549 25.6782 4.50163 25.6803 4.50777C25.6851 4.52145 25.6891 4.53537 25.6924 4.54949C25.6957 4.56399 25.6944 4.58215 25.6946 4.55728C25.6946 4.57158 25.6952 4.58621 25.6954 4.60058C25.6954 4.6259 25.7031 4.57462 25.6943 4.60836C25.6911 4.61767 25.6885 4.62717 25.6863 4.63679C25.6837 4.65483 25.6994 4.61406 25.6898 4.62951C25.6873 4.63343 25.6856 4.63812 25.6835 4.64217C25.6813 4.64622 25.6786 4.65021 25.6763 4.65432C25.6618 4.68047 25.6802 4.65432 25.6796 4.65223C25.6806 4.65496 25.6631 4.67059 25.6606 4.67294C25.6615 4.67199 25.6474 4.68591 25.6468 4.6856C25.6452 4.68446 25.6716 4.67028 25.6573 4.67768C25.6477 4.68268 25.639 4.68996 25.6295 4.69522C25.6255 4.69743 25.6207 4.69914 25.6168 4.70155C25.6033 4.71047 25.6485 4.69174 25.62 4.70003C25.6106 4.70275 25.6015 4.70592 25.5921 4.70826C25.5897 4.70883 25.573 4.71206 25.573 4.71225C25.5734 4.70984 25.603 4.71161 25.5894 4.70997C25.58 4.7094 25.5705 4.7094 25.5611 4.70997C25.539 4.70997 25.5918 4.71744 25.5611 4.70997C25.5507 4.70737 25.5405 4.70503 25.5303 4.70187C25.5249 4.70016 25.4917 4.68648 25.5113 4.69553C25.5309 4.70459 25.5013 4.69028 25.4966 4.68787C25.4842 4.68148 25.4721 4.67464 25.4603 4.66736C25.4495 4.66103 25.439 4.65382 25.4286 4.64654C25.4182 4.63926 25.4037 4.62615 25.4222 4.64211C25.4006 4.62311 25.3788 4.60494 25.3589 4.58443C25.341 4.56639 25.3246 4.54727 25.3081 4.52784C25.3259 4.54917 25.3047 4.52271 25.299 4.51461C25.2901 4.50195 25.2818 4.48897 25.274 4.47561C25.2614 4.4544 25.25 4.43244 25.24 4.4099C25.2515 4.43522 25.2404 4.40895 25.2366 4.39724C25.2328 4.38553 25.2292 4.37299 25.2263 4.36065C25.2252 4.35609 25.2162 4.31634 25.2211 4.33767C25.2256 4.35736 25.2202 4.32501 25.2198 4.31741C25.2194 4.30842 25.2193 4.29937 25.2198 4.29032C25.2198 4.28462 25.2206 4.27899 25.2209 4.27329C25.2216 4.25176 25.2216 4.28481 25.2188 4.28709C25.2225 4.28411 25.2232 4.26664 25.2248 4.26113C25.2301 4.24252 25.241 4.241 25.2212 4.26506C25.2309 4.2529 25.2387 4.23948 25.2446 4.22511C25.2427 4.23777 25.2204 4.25132 25.2408 4.23233C25.2453 4.22815 25.2499 4.22391 25.2543 4.21967C25.2742 4.19966 25.2295 4.23473 25.2472 4.22511C25.2541 4.22125 25.2607 4.21625 25.2676 4.21245C25.2729 4.20948 25.2783 4.20694 25.2836 4.20409C25.309 4.19061 25.2694 4.2091 25.2739 4.20777C25.2877 4.20378 25.301 4.19814 25.3149 4.19447C25.3263 4.19143 25.3379 4.18884 25.3494 4.18675C25.3552 4.18567 25.3615 4.18536 25.3671 4.18377C25.3579 4.18637 25.3259 4.18827 25.3505 4.18618C25.3677 4.18472 25.3849 4.18327 25.4022 4.1832C25.4352 4.1832 25.4086 4.18377 25.3901 4.18029C25.4123 4.18453 25.363 4.16434 25.3774 4.17491C25.3821 4.17827 25.3879 4.18067 25.3928 4.18371C25.3992 4.1877 25.4055 4.19264 25.4118 4.19637C25.4235 4.20346 25.3962 4.18371 25.3971 4.18479C25.4015 4.18915 25.4067 4.19289 25.4118 4.19637C25.4787 4.25531 25.5399 4.32032 25.5954 4.39009C25.6186 4.41794 25.6411 4.44636 25.6636 4.47485C25.6757 4.49011 25.639 4.44263 25.656 4.46504C25.6588 4.46877 25.6617 4.47245 25.6645 4.47618C25.6672 4.47992 25.6688 4.48289 25.6711 4.48612C25.6908 4.51803 25.7226 4.54075 25.759 4.55025C25.7953 4.55974 25.8339 4.55493 25.8668 4.53683C25.8989 4.51739 25.9222 4.48618 25.9317 4.44985C25.9411 4.41351 25.936 4.37489 25.9174 4.34229Z" fill="white"/>
<path d="M26.99 5.27311C26.9089 5.14916 26.8183 5.03166 26.7191 4.92151C26.6705 4.86333 26.6055 4.82098 26.5326 4.79978C26.4564 4.78097 26.3768 4.78123 26.3007 4.80054C26.2544 4.81237 26.2109 4.83339 26.1729 4.86238C26.135 4.89138 26.1032 4.92778 26.0796 4.96931C26.0243 5.08281 26.0119 5.2124 26.0446 5.33433C26.0792 5.46404 26.1465 5.5828 26.24 5.67921C26.3198 5.77126 26.425 5.83773 26.5425 5.87027C26.6122 5.88546 26.6847 5.88255 26.7529 5.86172C26.8211 5.84096 26.8829 5.80298 26.9322 5.75151C26.9842 5.69131 27.0184 5.61793 27.0311 5.5395C27.0439 5.46106 27.0346 5.38067 27.0044 5.30717C26.9937 5.27121 26.9694 5.24076 26.9367 5.22221C26.9041 5.20366 26.8654 5.19847 26.8289 5.20765C26.7927 5.2181 26.7621 5.24228 26.7434 5.27501C26.7248 5.30774 26.7198 5.34648 26.7294 5.38288C26.7382 5.40827 26.7456 5.4341 26.7515 5.4603C26.7555 5.47645 26.7503 5.4522 26.7503 5.45043C26.7503 5.45587 26.7512 5.46132 26.7514 5.46676C26.752 5.48056 26.7496 5.49468 26.7504 5.50835C26.7513 5.52544 26.75 5.49417 26.752 5.49506C26.7512 5.49981 26.7501 5.50455 26.7488 5.50918C26.7463 5.51994 26.7429 5.53051 26.7388 5.54083C26.7359 5.54007 26.7533 5.51513 26.7437 5.52766C26.7397 5.53576 26.7351 5.54355 26.7301 5.55102C26.7242 5.56476 26.7525 5.52728 26.7335 5.54703C26.7271 5.55336 26.7215 5.56007 26.715 5.56602C26.7117 5.569 26.708 5.57166 26.7049 5.57476C26.6944 5.58533 26.7152 5.5652 26.7161 5.56596C26.7154 5.56539 26.6927 5.58008 26.6894 5.58217C26.6627 5.59818 26.7077 5.57773 26.6861 5.58413C26.6757 5.58723 26.6656 5.59046 26.6551 5.59312C26.6506 5.5942 26.6459 5.59495 26.6414 5.59603C26.6257 5.59958 26.6402 5.59875 26.6414 5.59603C26.6447 5.59071 26.657 5.59609 26.6414 5.59603C26.6369 5.59603 26.6324 5.59578 26.6279 5.59578C26.6227 5.59527 26.6175 5.59514 26.6123 5.59527C26.5973 5.59704 26.6411 5.6016 26.6262 5.59723C26.6198 5.59546 26.5739 5.5802 26.5723 5.58147C26.5735 5.58052 26.5983 5.59451 26.585 5.58672C26.581 5.58432 26.5764 5.58261 26.5723 5.58039C26.5607 5.57451 26.5493 5.56773 26.5383 5.5614C26.5297 5.55602 26.5215 5.55013 26.5129 5.54456C26.4907 5.52988 26.5294 5.55893 26.5086 5.54146C26.489 5.52526 26.4703 5.5081 26.4525 5.48999C26.4435 5.48069 26.4347 5.47119 26.4261 5.46138C26.4227 5.45745 26.4013 5.43251 26.4122 5.44543C26.423 5.45834 26.4112 5.44422 26.4096 5.44195C26.4051 5.43561 26.4007 5.42973 26.3964 5.42352C26.3889 5.4127 26.3817 5.40168 26.3749 5.39035C26.3622 5.36965 26.3511 5.34825 26.3405 5.32648C26.3284 5.30172 26.3468 5.34547 26.3378 5.32015C26.333 5.3066 26.3282 5.29311 26.3243 5.27931C26.3215 5.26919 26.319 5.25893 26.3168 5.24861C26.3157 5.24361 26.3152 5.23823 26.3138 5.23329C26.3095 5.21721 26.3169 5.24519 26.3154 5.24595C26.316 5.24595 26.3124 5.17727 26.3128 5.16999C26.3128 5.16486 26.3135 5.12649 26.3137 5.15099C26.3137 5.17296 26.315 5.1472 26.3168 5.14004C26.319 5.13086 26.3221 5.12206 26.3247 5.11301C26.331 5.09187 26.3088 5.14112 26.3236 5.11637C26.3277 5.10953 26.3322 5.10244 26.3363 5.09541C26.3467 5.07642 26.3147 5.1177 26.3299 5.10332C26.3346 5.09902 26.3389 5.09415 26.3434 5.08959C26.3649 5.06749 26.3244 5.09991 26.3388 5.09256C26.3442 5.08984 26.3491 5.08623 26.3544 5.083C26.3597 5.07977 26.385 5.06889 26.359 5.07971C26.334 5.09022 26.3555 5.08123 26.3616 5.07971C26.3692 5.07762 26.3767 5.07522 26.3845 5.07338C26.3903 5.07256 26.3961 5.07142 26.4018 5.06996C26.4096 5.06718 26.3621 5.07313 26.3869 5.07212C26.4001 5.07161 26.4131 5.0706 26.4264 5.07098C26.4327 5.07098 26.439 5.07174 26.4454 5.07205C26.4691 5.07319 26.4352 5.07205 26.428 5.06933C26.4381 5.07288 26.4501 5.07306 26.4607 5.07566C26.4688 5.07914 26.4773 5.08186 26.486 5.0837C26.4904 5.0837 26.4523 5.06471 26.4645 5.0749C26.4691 5.07851 26.4742 5.08155 26.4795 5.08408C26.4849 5.08655 26.4506 5.05876 26.4679 5.07515C26.4732 5.08022 26.479 5.08478 26.4843 5.08978C26.4957 5.10048 26.5065 5.11168 26.5172 5.12308C26.5461 5.15403 26.5731 5.18638 26.5996 5.21974C26.6042 5.2255 26.6263 5.2545 26.6132 5.23677C26.6 5.21905 26.6195 5.24551 26.6234 5.25026C26.636 5.26716 26.6486 5.284 26.661 5.3009C26.6891 5.33926 26.7168 5.37794 26.7434 5.41732C26.7527 5.43378 26.7652 5.44821 26.7801 5.45986C26.795 5.47145 26.8121 5.47999 26.8305 5.48487C26.8487 5.4898 26.8678 5.49107 26.8866 5.4886C26.9053 5.48607 26.9234 5.47993 26.9397 5.47037C26.956 5.46081 26.9703 5.44815 26.9817 5.43302C26.9931 5.41789 27.0014 5.40073 27.006 5.38237C27.0107 5.36408 27.0116 5.34503 27.0088 5.32629C27.006 5.30761 26.9998 5.28925 26.99 5.27311Z" fill="white"/>
<path d="M27.6312 6.56201C27.6023 6.42907 27.57 6.29613 27.5281 6.1668C27.5086 6.08792 27.4717 6.01436 27.42 5.95156C27.3677 5.89477 27.2988 5.8559 27.2231 5.84052C26.946 5.79431 26.8111 6.11432 26.8192 6.3438C26.8238 6.46224 26.8482 6.57904 26.8913 6.68945C26.9257 6.79536 26.9853 6.89133 27.0651 6.96913C27.1172 7.01547 27.1827 7.04396 27.2521 7.05035C27.3216 7.05681 27.3912 7.04092 27.4509 7.00496C27.5858 6.91633 27.6284 6.75174 27.6363 6.59981C27.6361 6.56208 27.621 6.52599 27.5943 6.49934C27.5676 6.47269 27.5314 6.45762 27.4937 6.45737C27.4561 6.45819 27.4203 6.47345 27.3938 6.49997C27.3672 6.5265 27.3519 6.56227 27.3511 6.59981C27.3504 6.6131 27.3494 6.62633 27.3482 6.63956C27.3482 6.64203 27.3448 6.6628 27.3476 6.64589C27.3507 6.6276 27.3461 6.6526 27.3452 6.65691C27.3405 6.68071 27.3315 6.70299 27.3262 6.72654C27.3312 6.70553 27.3325 6.71388 27.3245 6.72908C27.3196 6.73857 27.3125 6.74737 27.308 6.75693C27.3016 6.76959 27.315 6.7461 27.3172 6.74572C27.3153 6.74572 27.3104 6.75376 27.3088 6.75528C27.3059 6.75807 27.3025 6.76111 27.3001 6.76415C27.286 6.78054 27.3073 6.75503 27.3105 6.75731C27.3105 6.75731 27.2922 6.76858 27.2906 6.76997C27.2724 6.78263 27.3223 6.7594 27.2925 6.76832C27.2888 6.7694 27.285 6.77029 27.2812 6.77098C27.2803 6.76807 27.3146 6.77048 27.2997 6.76845C27.2976 6.76845 27.2713 6.76845 27.2713 6.76845C27.2724 6.7651 27.3071 6.77579 27.2752 6.76763C27.2676 6.76567 27.2334 6.75339 27.2601 6.76377C27.2845 6.77326 27.2637 6.76377 27.2575 6.76054C27.2337 6.74718 27.276 6.77953 27.2617 6.76402C27.2502 6.75187 27.2386 6.73927 27.2269 6.72737C27.2171 6.71736 27.2364 6.73882 27.2363 6.73952C27.2363 6.73737 27.23 6.73066 27.2287 6.72882C27.2229 6.7199 27.217 6.71122 27.2114 6.70217C27.2005 6.68419 27.1905 6.66571 27.1813 6.64684C27.1768 6.63773 27.173 6.62823 27.1686 6.61924C27.1613 6.60512 27.1725 6.62867 27.1727 6.62937C27.1702 6.62304 27.1675 6.61633 27.1649 6.60981C27.1481 6.56594 27.1342 6.52093 27.1235 6.47516C27.1181 6.45224 27.1138 6.42913 27.1098 6.4059C27.1087 6.40065 27.1079 6.39533 27.1074 6.39001C27.1074 6.39045 27.11 6.41806 27.1092 6.40153C27.1087 6.38944 27.1067 6.37729 27.106 6.3652C27.1046 6.34355 27.1041 6.32183 27.1048 6.30012C27.1048 6.29056 27.1058 6.28113 27.1065 6.27157C27.1086 6.23839 27.1016 6.29151 27.1065 6.26872C27.1109 6.24764 27.1165 6.22687 27.1233 6.20649C27.1254 6.20047 27.1385 6.16851 27.133 6.18028C27.1274 6.19206 27.1429 6.16129 27.1463 6.1554C27.1521 6.14508 27.1593 6.13571 27.1653 6.12552C27.173 6.1121 27.1584 6.1366 27.157 6.13635C27.1579 6.13635 27.1645 6.12786 27.1656 6.12698C27.1701 6.12286 27.1909 6.10501 27.1714 6.11989C27.1519 6.13476 27.1756 6.11913 27.1806 6.11565C27.1982 6.10349 27.146 6.12786 27.1733 6.11963C27.1969 6.11254 27.1526 6.11963 27.1592 6.12071C27.165 6.12147 27.171 6.12147 27.1768 6.12071C27.187 6.11875 27.1541 6.11748 27.1534 6.11717C27.1572 6.11818 27.161 6.11894 27.1649 6.11938C27.1712 6.12166 27.1777 6.12362 27.1843 6.12514C27.1917 6.12635 27.1504 6.10799 27.1714 6.11989C27.1821 6.12622 27.1929 6.13185 27.2033 6.13844C27.2262 6.15287 27.1893 6.12609 27.1938 6.13084C27.1972 6.13445 27.2016 6.13749 27.2054 6.1409C27.2127 6.14724 27.2188 6.1554 27.226 6.16211C27.2398 6.17477 27.2049 6.12704 27.2145 6.1473C27.2164 6.15135 27.2193 6.15528 27.2215 6.1592C27.2237 6.16313 27.2263 6.16876 27.2288 6.17357C27.2392 6.19415 27.2297 6.18053 27.2255 6.16502C27.2341 6.19668 27.2488 6.22801 27.2587 6.25954C27.2978 6.384 27.3289 6.5113 27.3567 6.63868C27.3669 6.67495 27.3912 6.70572 27.424 6.72433C27.4568 6.743 27.4956 6.74794 27.5321 6.73819C27.5683 6.7273 27.5988 6.70293 27.6173 6.67008C27.6357 6.63722 27.6407 6.59848 27.6312 6.56201Z" fill="white"/>
<path d="M28.0997 8.15995C28.083 8.01321 28.0631 7.86653 28.0383 7.72099C28.0125 7.56994 27.9914 7.34388 27.815 7.29248C27.5478 7.21461 27.4713 7.57735 27.4537 7.76208C27.4443 7.86501 27.4425 7.96845 27.4483 8.07164C27.4499 8.19648 27.4708 8.32037 27.5103 8.43881C27.5307 8.51338 27.5779 8.57783 27.6428 8.61993C27.6793 8.63841 27.72 8.64696 27.7608 8.64474C27.8017 8.64253 27.8412 8.62961 27.8754 8.60727C28.0234 8.51535 28.0898 8.32518 28.0997 8.15995C28.0997 8.12216 28.0846 8.08633 28.0578 8.05961C28.0311 8.0329 27.9948 8.01789 27.957 8.01789C27.9191 8.01789 27.8829 8.0329 27.8561 8.05961C27.8294 8.08633 27.8143 8.12254 27.8143 8.16033C27.8143 8.15995 27.8087 8.2092 27.8129 8.18312C27.8105 8.19787 27.8072 8.21249 27.8033 8.22693C27.7996 8.24111 27.7948 8.25478 27.7903 8.26865C27.7776 8.30853 27.8023 8.25054 27.7827 8.28618C27.7722 8.30517 27.7618 8.32417 27.7496 8.34221C27.7667 8.31688 27.7459 8.34594 27.7421 8.34999C27.7371 8.35531 27.7319 8.36031 27.7265 8.36519C27.7421 8.35398 27.7439 8.35253 27.7315 8.36126L27.7234 8.36614C27.7124 8.37171 27.7128 8.37171 27.7245 8.36614L27.7336 8.36215C27.7184 8.36588 27.7232 8.36563 27.748 8.36126C27.7265 8.36265 27.7768 8.36804 27.7833 8.37202L27.7987 8.38469C27.7885 8.37437 27.7897 8.37696 27.8025 8.3926C27.7938 8.37829 27.7859 8.36348 27.779 8.34828C27.7946 8.38253 27.7802 8.34885 27.778 8.34227C27.7731 8.32784 27.7688 8.31315 27.7649 8.2984C27.7592 8.27688 27.7546 8.2551 27.7504 8.2332C27.7485 8.22288 27.747 8.21249 27.7451 8.20218C27.7378 8.16058 27.7478 8.23142 27.7433 8.18901C27.7377 8.13697 27.7336 8.08506 27.7319 8.03277C27.7288 7.94781 27.7307 7.86273 27.7375 7.77803C27.7387 7.76372 27.7418 7.74872 27.7419 7.73435C27.7419 7.79367 27.7414 7.73967 27.7439 7.72511C27.7466 7.70896 27.7497 7.69288 27.753 7.6768C27.758 7.65401 27.7636 7.63135 27.7706 7.60907C27.7742 7.59773 27.7783 7.58672 27.7822 7.57551C27.7701 7.6104 27.7842 7.57235 27.7885 7.56463C27.7925 7.55893 27.7961 7.5531 27.7994 7.54703C27.8065 7.5305 27.7758 7.57419 27.7928 7.55602C27.8021 7.54608 27.8181 7.53905 27.7822 7.56235C27.7949 7.55412 27.8056 7.55469 27.7664 7.56697C27.7957 7.55779 27.7266 7.5664 27.7555 7.56786C27.7089 7.56551 27.7213 7.56152 27.7349 7.56583C27.7546 7.57172 27.6962 7.54545 27.721 7.56077C27.7394 7.57216 27.6905 7.53506 27.7069 7.5495C27.7099 7.55203 27.7127 7.55469 27.7153 7.5576C27.7325 7.57703 27.6915 7.52114 27.7089 7.55057C27.7229 7.57419 27.6962 7.51139 27.7089 7.55159C27.7132 7.56513 27.7174 7.57868 27.7211 7.59235C27.7401 7.66288 27.7528 7.73524 27.765 7.80715C27.7726 7.85216 27.7796 7.89723 27.7861 7.94237C27.7895 7.96522 27.7925 7.98808 27.7958 8.01093C27.7971 8.02011 27.8037 8.05239 27.7958 8.00947C27.7974 8.01789 27.798 8.02657 27.7992 8.0348C27.8046 8.07639 27.8096 8.11861 27.8143 8.16033C27.8154 8.19774 27.8311 8.23282 27.8576 8.25928C27.8841 8.28574 27.9198 8.30112 27.9572 8.3022C27.9949 8.30194 28.031 8.28682 28.0576 8.26023C28.0843 8.23364 28.0994 8.19762 28.0997 8.15995Z" fill="white"/>
<path d="M24.5682 3.78325C24.691 3.94804 24.8348 4.09611 24.996 4.22367C25.0569 4.27311 25.1235 4.31508 25.1944 4.34863C25.2281 4.3668 25.2672 4.37186 25.3044 4.363C25.3314 4.3556 25.3557 4.34034 25.3741 4.31919C25.3925 4.29805 25.4043 4.27197 25.4079 4.24418C25.4116 4.21639 25.4069 4.18809 25.3946 4.16296C25.3822 4.13782 25.3627 4.11681 25.3385 4.10269C25.3031 4.0868 25.269 4.06819 25.2365 4.04711C25.2192 4.03603 25.2023 4.02438 25.1858 4.01235C25.1773 4.00602 25.1691 3.99969 25.1604 3.99336C25.1976 4.01957 25.1662 3.9976 25.1582 3.99121C25.0943 3.93873 25.0336 3.88245 24.9765 3.82256C24.9309 3.77515 24.8869 3.72621 24.8447 3.67569C24.832 3.66033 24.8194 3.6448 24.8067 3.6291C24.8031 3.62473 24.7997 3.62024 24.7962 3.61587C24.7851 3.60182 24.8244 3.65246 24.8143 3.63923C24.7945 3.60804 24.7643 3.58485 24.729 3.57377C24.692 3.56392 24.6525 3.56909 24.6191 3.58814C24.5868 3.60746 24.5633 3.6387 24.5537 3.67513C24.5441 3.71157 24.5495 3.75052 24.5682 3.78325Z" fill="white"/>
<path d="M25.6321 4.81156C25.8613 4.95178 26.0897 5.09485 26.3101 5.24868C26.3428 5.26754 26.3816 5.2728 26.4181 5.26324C26.4547 5.25368 26.486 5.23007 26.5052 5.19759C26.5233 5.16474 26.5281 5.12618 26.5186 5.08991C26.5091 5.05364 26.486 5.02243 26.454 5.00268C26.2336 4.84891 26.0053 4.70577 25.7758 4.56555C25.7596 4.55612 25.7417 4.54992 25.7232 4.54738C25.7046 4.54485 25.6858 4.54599 25.6676 4.55074C25.6495 4.55549 25.6325 4.56378 25.6175 4.57505C25.6026 4.58638 25.5901 4.6005 25.5807 4.61664C25.5712 4.63285 25.565 4.6507 25.5625 4.66918C25.5599 4.68773 25.5611 4.7066 25.5658 4.7247C25.5706 4.74281 25.5789 4.75977 25.5902 4.77471C25.6015 4.78959 25.6159 4.80212 25.6321 4.81156Z" fill="white"/>
<path d="M26.6075 5.62075C26.6599 5.67493 26.7089 5.73286 26.7563 5.79135C26.7673 5.8049 26.7783 5.81851 26.789 5.83225C26.7943 5.83858 26.7994 5.84567 26.8047 5.85232C26.7784 5.81914 26.8009 5.84744 26.8065 5.85491C26.8311 5.88732 26.8551 5.92018 26.8784 5.95354C26.9305 6.02767 26.9786 6.1044 27.0228 6.1834C27.0419 6.21601 27.0732 6.23975 27.1098 6.2493C27.1464 6.25886 27.1853 6.25355 27.218 6.23449C27.2506 6.21537 27.2743 6.18416 27.284 6.14757C27.2935 6.11104 27.2882 6.07218 27.2691 6.03957C27.1799 5.88321 27.0775 5.73476 26.9629 5.59593C26.9138 5.53535 26.8634 5.47565 26.8092 5.41931C26.7959 5.40608 26.7802 5.39557 26.7629 5.38841C26.7456 5.38126 26.7271 5.37759 26.7083 5.37759C26.6896 5.37759 26.6711 5.38126 26.6538 5.38841C26.6365 5.39557 26.6207 5.40608 26.6075 5.41931C26.5942 5.43254 26.5838 5.44824 26.5765 5.46552C26.5694 5.4828 26.5657 5.50135 26.5657 5.52003C26.5657 5.5387 26.5694 5.55725 26.5765 5.57453C26.5838 5.59182 26.5942 5.60751 26.6075 5.62075Z" fill="white"/>
<path d="M27.2768 6.86355C27.2811 6.86811 27.2851 6.87286 27.2892 6.8776C27.2932 6.88235 27.2981 6.88818 27.3024 6.89356C27.3054 6.89723 27.3082 6.90103 27.3113 6.90464C27.3246 6.92072 27.2872 6.87222 27.3003 6.89052C27.337 6.94091 27.3712 6.99307 27.4026 7.04688C27.423 7.08271 27.442 7.11931 27.4596 7.15666C27.4657 7.16932 27.4716 7.18198 27.4773 7.19464C27.4805 7.20179 27.4937 7.23262 27.4804 7.20097C27.4908 7.22585 27.5007 7.25098 27.5099 7.27624C27.5509 7.38886 27.5812 7.50509 27.6004 7.62341C27.6106 7.65974 27.6347 7.69064 27.6676 7.70925C27.7005 7.72786 27.7394 7.7328 27.7758 7.72286C27.8118 7.71191 27.8421 7.68766 27.8606 7.65506C27.8791 7.62252 27.8844 7.58409 27.8754 7.54769C27.8384 7.32112 27.7616 7.10285 27.6486 6.90293C27.6014 6.81626 27.5443 6.73542 27.4783 6.66199C27.4514 6.63559 27.4152 6.62077 27.3774 6.62077C27.3397 6.62077 27.3035 6.63559 27.2766 6.66199C27.2506 6.68908 27.2361 6.72517 27.2361 6.76271C27.2361 6.80025 27.2508 6.83646 27.2768 6.86355Z" fill="white"/>
<path d="M26.934 7.72729C26.934 7.72729 26.8769 7.58016 26.7939 7.58611C26.8161 7.7973 26.8185 7.81952 26.8326 7.95278C26.8467 8.08604 26.8479 8.33362 26.9023 8.76986C26.9568 9.2061 27.1476 10.2977 26.9566 11.3325C26.8308 11.486 26.739 11.5642 26.7458 11.2333C26.7525 10.9025 26.8264 9.31518 26.7363 9.09304C26.6461 8.8709 26.4761 8.76328 26.3833 8.75536C26.5235 8.94908 26.6031 9.17989 26.6121 9.41874C26.6165 9.5382 26.5957 11.0784 26.6099 11.2117C26.624 11.3451 26.644 11.7702 26.8553 11.5581C26.8898 11.8055 26.8997 11.8192 26.9953 11.9356C27.091 12.0521 27.0105 12.3164 26.943 12.4668C26.8755 12.6172 27.1527 13.136 27.1978 13.247C27.2429 13.358 27.5261 13.5877 27.687 13.2856C27.786 13.0378 27.4609 13.2378 27.4423 13.2213C27.4238 13.2048 27.2557 13.2086 27.0577 12.7609C27.241 12.4433 27.3113 12.0788 27.271 11.9372C27.2308 11.7957 27.0464 11.6296 27.0464 11.6296C27.0464 11.6296 27.2687 11.4424 27.3264 11.5144C27.3842 11.5864 27.4477 11.7141 27.3786 11.9285C27.4782 12.0031 27.6879 12.0911 27.7279 12.2327C27.7679 12.3743 27.8991 12.2765 27.9015 12.1378C27.8971 12.0674 27.8736 11.9996 27.8336 11.9415C27.7937 11.8834 27.7387 11.8373 27.6745 11.808C27.5709 11.775 27.5996 11.7304 27.6301 11.5468C27.6606 11.3632 27.5893 10.8466 27.1245 11.3433C27.1602 11.1291 27.5274 9.94608 27.354 9.09595C27.4687 8.91755 27.5913 8.59584 27.6032 8.47062C27.615 8.3454 27.5388 7.89846 27.5388 7.89846C27.5388 7.89846 27.4597 8.75353 27.3152 8.96541C27.2607 8.76543 27.1631 8.5519 27.1582 8.5074C27.1534 8.46289 27.1293 8.15447 27.1293 8.15447C27.1293 8.15447 27.337 7.90904 27.3696 7.82269C27.4022 7.73634 27.4678 7.48856 27.4069 7.54452C27.3461 7.60048 27.2352 7.73716 27.1908 7.71228C27.1464 7.6874 27.0865 7.59321 26.934 7.72729Z" fill="white"/>
<path d="M28.2622 6.06113C28.2729 5.92723 28.301 5.79531 28.3459 5.66863C28.3682 5.87982 28.3707 5.90204 28.3848 6.03542C28.3988 6.16881 28.4447 6.36594 28.4843 6.81883C28.524 7.27171 28.5802 8.51415 28.9265 8.94633C29.0545 8.8151 29.1416 8.69254 29.0737 8.44533C29.0058 8.19813 28.7028 7.09623 28.6763 6.74014C28.6519 6.45102 28.6921 6.16007 28.7939 5.88837C28.7596 6.42836 28.8165 6.64499 28.8358 6.74786C28.855 6.85073 29.1626 8.02233 29.1767 8.15571C29.1907 8.28909 29.2555 8.66412 29.0489 8.92082C29.0685 9.1848 29.0635 9.21538 29.01 9.49911C28.9566 9.78285 29.0701 9.82963 29.1518 9.8126C29.2334 9.79557 29.2176 10.6713 29.203 10.8494C29.1884 11.0274 29.1212 11.5752 28.8386 11.7432C28.7137 11.7466 28.9195 11.4038 28.9309 11.3536C29.0591 11.0084 29.1222 10.6424 29.1171 10.2743C28.9125 10.3918 28.7885 10.2452 28.7933 10.0533C28.7981 9.86141 28.9117 9.36073 28.9117 9.36073C28.9117 9.36073 28.7012 9.65902 28.6693 9.83153C28.6374 10.004 28.6116 10.2322 28.7066 10.2623C28.6422 10.5211 28.4937 11.011 28.489 11.2028C28.4843 11.3946 28.3622 11.5813 28.3342 11.4758C28.3063 11.3704 28.3751 10.9947 28.4506 10.7609C28.5261 10.527 28.495 10.5495 28.436 10.4664C28.377 10.3833 28.3358 9.83286 28.7958 9.29173C28.7271 9.19481 28.2142 8.99951 28.1899 7.98219C28.0658 8.07177 27.9268 8.17793 27.8937 8.10304C27.8644 8.00871 27.843 7.91211 27.8299 7.81424C27.8299 7.81424 28.0418 7.92446 28.1957 7.80158C28.2009 7.53469 28.2374 7.1703 28.2328 7.12592C28.2281 7.08154 28.1889 6.78971 28.1889 6.78971C28.1889 6.78971 27.9788 7.01299 27.9368 7.01033C27.8948 7.00767 27.7961 6.9443 27.8544 6.86618C27.9126 6.78806 28.026 6.67354 28.0562 6.56504C28.0896 6.38474 28.1597 6.21325 28.2622 6.06113Z" fill="white"/>
<path d="M27.5836 9.25493C27.5836 9.25493 28.1157 8.94847 28.2445 8.8285C28.3732 8.70854 28.2702 9.05988 28.2702 9.05988C28.3285 9.26828 28.3638 9.48238 28.3754 9.69845C28.3817 10.6113 28.2273 10.8428 27.9355 10.9628C27.9355 10.9628 27.5488 11.0999 27.515 10.3971C27.487 9.81417 27.6094 9.51207 27.6094 9.51207C27.6094 9.51207 27.4549 9.30633 27.5836 9.25493Z" fill="white"/>
<path d="M27.3391 9.19709C27.3391 9.19709 27.5257 9.29996 27.648 9.29996C27.7703 9.29996 27.6094 9.44778 27.6094 9.44778C27.5116 9.40036 27.417 9.34668 27.3262 9.28704L27.2747 9.2421L27.3455 9.16493L27.3391 9.19709Z" fill="white"/>
<path d="M24.9074 0.336514C24.8499 0.413747 25.0089 0.629111 25.2624 0.817635C25.516 1.00616 25.7683 1.09618 25.8259 1.01907C25.8835 0.941967 25.7245 0.726475 25.4709 0.537952C25.2173 0.349428 24.9651 0.259281 24.9074 0.336514Z" fill="white"/>
<path d="M12.7767 8.13259L12.4046 8.21597L12.0843 8.33314L11.797 8.46672L11.5434 8.61776L11.3406 8.80179L11.1548 9.00241L11.003 9.20283L10.868 9.43725L10.7665 9.688L10.6819 9.93952L10.6316 10.207L10.5979 10.4744L10.5806 10.7757L10.5639 11.0603L10.5806 11.3615L10.5979 11.6624L10.6481 12.2815L10.7329 12.8837L10.8169 13.4695L10.868 14.0381L10.8844 14.3056L10.9015 14.5736L10.8844 14.8078L10.868 15.0421L10.834 15.2593L10.7832 15.4599L10.6992 15.6273L10.5979 15.7946L10.5131 15.7443L10.4116 15.6775L10.3105 15.544L10.1918 15.393L10.1415 15.2758L10.0907 15.1587L10.0568 15.025L10.0232 14.8911L9.9892 14.7238L9.97272 14.5398V14.1214L9.76943 14.1553L9.66839 14.1883L9.58414 14.2221L9.51657 14.2559L9.44906 14.3056L9.39804 14.3729L9.36431 14.4226L9.2968 14.5736L9.26276 14.7238L9.24647 14.8911L9.31379 15.2593L9.38156 15.4434L9.46561 15.6273L9.55036 15.8278L9.66839 15.9953L9.78667 16.1795L9.90521 16.3301L10.0402 16.4639L10.4959 16.2966L10.8844 16.1124L11.0532 16.0291L11.3241 15.8278L11.4421 15.7278L11.5434 15.6273L11.6447 15.5101L11.7122 15.4101L11.7797 15.293L11.8307 15.176L11.8645 15.0588L11.932 14.8078L11.9492 14.5569L11.932 14.2724L11.9153 13.9878L11.8645 13.6701L11.7632 13.0008L11.7122 12.6328L11.6782 12.2483L11.6619 12.1312L11.6279 11.7963L11.6107 11.2944L11.6279 11.0099L11.6447 10.6921L11.6782 10.3573L11.7457 10.0231L11.8307 9.67155L11.9492 9.33736L12.1011 9.00241L12.1856 8.85212L12.2868 8.70114L12.3883 8.55091L12.5062 8.39993L12.6417 8.26629L12.7767 8.13259Z" fill="white"/>
<path d="M15.4968 16.5142L15.5136 16.2965L15.5808 15.8781L15.6651 15.4768L15.7837 15.1256L16.0207 14.4562L16.138 14.1385L16.2397 13.8375L16.3073 13.5192L16.3238 13.3688V13.0676L16.2908 12.7334L16.2397 12.5659L16.1722 12.3984L16.1048 12.2144L16.0029 12.0304L15.8854 11.8466L15.7491 11.6459L15.5974 11.4447L15.4116 11.2275L15.1922 10.9934L14.7361 11.3614L14.246 11.7292L13.6721 12.1311L13.6551 11.5453L13.6721 10.943L13.7223 9.88913L13.7734 9.55431L13.8409 9.23658L13.9084 8.95215L14.0097 8.70108L14.0608 8.60118L14.1282 8.51699L14.2633 8.38335L14.3475 8.34954H14.4323L14.4998 8.41722L14.5843 8.48407L14.6851 8.55086L14.8036 8.61771L14.9221 8.66791L15.0572 8.70108L15.209 8.7176L15.3441 8.73469L15.4968 8.7176L15.6483 8.68462L15.8002 8.61771L15.9697 8.53376L16.1213 8.41722L16.2728 8.26623L16.4258 8.06568L16.5609 7.84791L16.3238 7.94857L16.2053 7.96503L16.0883 7.9989H15.8512L15.6318 7.98149L15.3951 7.9147L15.1758 7.83139L14.9552 7.73086L14.7361 7.61374L14.4825 7.71415L14.2633 7.83139L14.0435 7.96503L13.8409 8.11601L13.6721 8.28276L13.5033 8.46666L13.2332 8.90239L13.1312 9.15302L13.0299 9.42061L12.9624 9.72181L12.9119 10.023L12.8611 10.3572L12.8444 10.7258V11.1104L12.8611 11.5115L12.9794 13.2352L13.0469 15.0249V15.8449L13.0134 16.2297L12.9794 16.5645L12.9286 16.8822L12.8611 17.1497L12.7768 17.3674L12.7261 17.4507L12.6758 17.5348L12.456 17.4004L12.2697 17.2833L12.0844 17.2L11.9321 17.133L11.7971 17.0826L11.662 17.0497L11.5435 17.0326H11.4422L11.3242 17.0497L11.2394 17.0826L11.0533 17.1497L10.6655 17.3335L10.8681 17.4004L11.0533 17.4674L11.2057 17.5681L11.3407 17.6685L11.5605 17.869L11.662 17.9526L11.7633 18.0365L11.8646 18.1034L11.9656 18.1364L12.1012 18.1537L12.2529 18.1199L12.422 18.0697L12.6083 17.9526L12.8444 17.8022L13.1144 17.5846L13.2159 17.4845L13.3172 17.3839L13.402 17.2833L13.486 17.1668L13.6211 16.9153L13.7223 16.6478L13.7899 16.3633L13.8409 16.0793L13.8749 15.7781V15.1924L13.8581 14.9078L13.8236 14.3729L13.7561 13.9043L13.7223 13.5694L13.6885 12.5824L13.7734 12.4991L13.8581 12.3984L13.9759 12.3316L14.0774 12.2647L14.1957 12.2144L14.3137 12.1979L14.4323 12.2144L14.5506 12.2482L14.652 12.3316L14.7706 12.4488L14.8546 12.6163L14.9552 12.8333L15.0242 13.1014L15.0903 13.4356L15.1415 13.8375L15.1758 14.3056L15.1922 14.6239V14.9413L15.1592 15.4598L15.1247 15.8952L15.0572 16.2797L15.0242 16.5975L14.9897 16.9153V17.0826L15.0065 17.2336L15.0242 17.4004L15.0572 17.5846L15.1592 17.9697L15.209 18.1537L15.2765 18.3039L15.3441 18.4378L15.4293 18.5548L15.4968 18.6555L15.5974 18.7388L15.6817 18.8058L15.7837 18.8394L15.8854 18.8561H15.9862L16.1048 18.823L16.223 18.7726L16.3583 18.6891L16.4934 18.5719L16.6452 18.4378L16.7127 18.3377L16.7469 18.3039V18.2206L16.7292 18.1868L16.6794 18.1364L16.5941 18.1034L16.3405 18.0029L16.2053 17.9359L16.0538 17.869L15.9187 17.7684L15.7837 17.6349L15.6651 17.4845L15.6141 17.3839L15.5643 17.2833L15.53 17.1668L15.5136 17.0497L15.4968 16.8987V16.5142Z" fill="white"/>
<path d="M19.1284 12.934H19.094L18.7908 12.6997L18.6213 12.5494L18.4695 12.382L18.3002 12.2144L18.1484 12.0304L18.0134 11.8298L17.8948 11.6288L17.7943 11.4282L17.7256 11.2275L17.6758 11.0264V10.8259L17.6923 10.7258L17.709 10.6253L17.7433 10.5412L17.7943 10.4412L17.8619 10.3406L17.9291 10.2572L18.0134 10.1731L18.1142 10.0898L18.3513 10.207L18.5881 10.3743L18.8239 10.575L19.0609 10.8092L19.28 11.0767L19.382 11.2275L19.4662 11.3779L19.5503 11.5453L19.6854 11.8795L19.7361 12.0643L19.787 11.9636L19.8381 11.8631L19.8879 11.6624L19.9056 11.4447V11.2275L19.8549 11.0264L19.787 10.8092L19.6854 10.5915L19.5503 10.3908L19.3985 10.1905L19.247 9.98916L19.0609 9.80532L18.6556 9.47088L18.4353 9.31996L18.2161 9.18633L17.9969 9.06915L17.7943 9.35377L17.6247 9.62117L17.473 9.87205L17.2362 10.3406L17.1521 10.5585L17.0667 10.7756L17.0168 10.9767L16.9826 11.1772L16.9494 11.3614L16.9316 11.5288V11.6956L16.9494 11.8466L16.9661 11.9966L16.9991 12.1476L17.0501 12.2815L17.1521 12.5156L17.2872 12.7334L17.4222 12.934L17.5738 13.1014L17.7433 13.2352L17.8783 13.3688L18.1142 13.5529L18.3347 13.7534L18.5205 13.9545L18.6723 14.1717L18.8074 14.3729L18.9081 14.5901L19.0101 14.8078L19.0775 15.0249L19.1284 15.2426L19.1614 15.4433V15.8278L19.1449 16.0118L19.1117 16.1794L19.0609 16.3301L19.0101 16.4638L18.9424 16.581L18.8584 16.6816L18.7731 16.7649L18.6723 16.8153L18.5703 16.8319H18.4695L18.3513 16.7982L18.2327 16.7485L18.1142 16.6478L17.9969 16.5306L17.8783 16.3633L17.76 16.1626L17.6415 15.912L17.5227 15.6273L17.4055 15.3094L17.3037 14.9249L17.2031 14.5065L17.1354 14.7411L17.0847 14.9917L17.0667 15.2592V15.544L17.1012 15.8278L17.1521 16.1123L17.2197 16.397L17.3037 16.6645L17.4055 16.9153L17.5227 17.133L17.6581 17.3335L17.7943 17.501L17.8619 17.5513L17.9459 17.6182L18.0134 17.652L18.0977 17.6851L18.1817 17.7016H18.2669L18.3513 17.6851L18.4353 17.652L18.5881 17.5681L18.7563 17.4507L18.9592 17.3006L19.1614 17.1165L19.3643 16.8987L19.5671 16.6478L19.7529 16.3633L19.9224 16.0621L19.99 15.8952L20.0409 15.7278L20.0907 15.5604L20.125 15.3765L20.1417 15.1924V15.0085L20.125 14.8242L20.1084 14.6239L20.0575 14.4226L19.99 14.2221L19.9056 14.0042L19.8039 13.8037L19.6686 13.5865L19.5173 13.3688L19.331 13.1512L19.1284 12.934Z" fill="white"/>
<path d="M12.5529 24.2773V24.2346C12.6171 24.233 12.6807 24.2215 12.7415 24.2005C12.7856 24.1856 12.8241 24.1572 12.8514 24.1194C12.8718 24.0759 12.8829 24.0286 12.8838 23.9805C12.8898 23.9118 12.8929 23.7999 12.893 23.645V23.1473C12.895 23.0546 12.891 22.9619 12.8808 22.8697C12.877 22.8287 12.8625 22.7894 12.8386 22.7558C12.8095 22.727 12.7731 22.7066 12.7333 22.697C12.6746 22.6795 12.614 22.6691 12.5529 22.6659V22.6208C12.5829 22.6216 12.6161 22.6222 12.6524 22.6226C12.6886 22.623 12.7423 22.6231 12.8131 22.6231C12.9003 22.6231 12.9653 22.623 13.0081 22.6226C13.0509 22.6222 13.09 22.6212 13.1255 22.6197C13.1201 22.7009 13.1161 22.7722 13.1134 22.8337C13.1107 22.8952 13.1094 22.9448 13.1094 22.9827V23.7822C13.1068 23.8719 13.1113 23.9616 13.1227 24.0506C13.1277 24.0891 13.1435 24.1254 13.1683 24.1555C13.1988 24.1831 13.2359 24.2026 13.2761 24.2119C13.3343 24.2265 13.3942 24.2342 13.4543 24.235V24.2777C13.3317 24.2754 13.2395 24.274 13.1778 24.2736C13.116 24.2731 13.0585 24.273 13.0053 24.2731C12.9522 24.2731 12.8947 24.2733 12.833 24.2736C12.7712 24.2739 12.6779 24.2752 12.5529 24.2773Z" fill="white"/>
<path d="M13.7223 24.3362L13.6992 24.2865C13.8732 24.2048 14.0325 24.0949 14.1707 23.9613C14.2858 23.8468 14.3723 23.7069 14.4234 23.5529C14.3689 23.5854 14.3106 23.6112 14.2499 23.6297C14.1947 23.6461 14.1375 23.6544 14.0798 23.6545C14.0144 23.6577 13.9489 23.6472 13.8878 23.6236C13.8267 23.5999 13.7713 23.5637 13.725 23.5173C13.6788 23.4709 13.6428 23.4153 13.6195 23.3542C13.5961 23.293 13.5858 23.2276 13.5893 23.1623C13.5866 23.0873 13.5996 23.0125 13.6274 22.9428C13.6552 22.8731 13.6972 22.8098 13.7507 22.7572C13.8057 22.7044 13.8707 22.6633 13.942 22.6362C14.0133 22.6091 14.0892 22.5966 14.1654 22.5995C14.2429 22.5952 14.3204 22.6071 14.3931 22.6342C14.4658 22.6613 14.5321 22.7032 14.5877 22.7572C14.641 22.8156 14.6819 22.8841 14.7083 22.9587C14.7348 23.0332 14.7461 23.1122 14.7416 23.191C14.7421 23.4446 14.6463 23.6889 14.4737 23.8747C14.2688 24.0925 14.0094 24.2519 13.7223 24.3362ZM14.4477 23.4729C14.4599 23.4245 14.4694 23.3755 14.4761 23.3261C14.4825 23.279 14.4858 23.2316 14.4859 23.184C14.4927 23.0513 14.4618 22.9193 14.3968 22.8034C14.3731 22.7605 14.3381 22.7248 14.2957 22.7001C14.2533 22.6754 14.205 22.6626 14.156 22.663C14.1099 22.6617 14.0642 22.6716 14.0229 22.6918C13.9815 22.712 13.9456 22.742 13.9183 22.7791C13.8559 22.8771 13.8247 22.9916 13.8289 23.1077C13.8332 23.2237 13.8726 23.3358 13.942 23.4289C13.9778 23.4712 14.0227 23.505 14.0734 23.5276C14.1241 23.5502 14.1792 23.5611 14.2346 23.5595C14.2743 23.5601 14.3136 23.5528 14.3503 23.5382C14.3867 23.5229 14.4197 23.5007 14.4477 23.4729Z" fill="white"/>
<path d="M14.8469 24.2819L14.8307 24.2484C15.0569 24.0658 15.2614 23.858 15.4404 23.6291C15.5692 23.4519 15.6336 23.2916 15.6336 23.1485C15.6391 23.056 15.6107 22.9646 15.5538 22.8914C15.5264 22.8602 15.4923 22.8357 15.454 22.8196C15.4157 22.8035 15.3743 22.7962 15.3328 22.7984C15.2625 22.7992 15.1937 22.8186 15.1332 22.8544C15.0595 22.8984 14.994 22.955 14.9394 23.0214L14.9036 22.9925C14.9583 22.8784 15.0378 22.778 15.1361 22.6984C15.2203 22.6359 15.3228 22.6027 15.4277 22.6043C15.4864 22.603 15.5447 22.6142 15.5986 22.6372C15.6526 22.6602 15.701 22.6945 15.7406 22.7377C15.8248 22.8279 15.8699 22.9478 15.8661 23.071C15.8661 23.2136 15.8054 23.3667 15.6839 23.5303C15.5175 23.7384 15.3257 23.9249 15.113 24.0855L15.5342 24.0809C15.5937 24.0824 15.6533 24.079 15.7123 24.0705C15.7424 24.0658 15.771 24.0539 15.7956 24.0358C15.8248 24.0092 15.851 23.9794 15.8737 23.9472C15.9068 23.9009 15.9376 23.8528 15.9656 23.8033L16.0061 23.823L15.828 24.277C15.7215 24.2755 15.6386 24.2743 15.5792 24.2736C15.5199 24.2728 15.4648 24.2724 15.4138 24.2724C15.3097 24.2724 15.2109 24.2732 15.1176 24.2747C15.0243 24.2762 14.9341 24.2786 14.8469 24.2819Z" fill="white"/>
<path d="M16.213 24.3362L16.1898 24.2866C16.3639 24.2048 16.5231 24.0949 16.6613 23.9613C16.7764 23.8468 16.863 23.7069 16.9141 23.5529C16.8595 23.5854 16.8013 23.6112 16.7405 23.6297C16.6854 23.6461 16.6281 23.6544 16.5705 23.6545C16.505 23.6577 16.4397 23.6472 16.3785 23.6236C16.3174 23.5999 16.2619 23.5637 16.2156 23.5173C16.1694 23.4709 16.1334 23.4153 16.1101 23.3542C16.0867 23.293 16.0764 23.2277 16.0799 23.1623C16.0773 23.0873 16.0903 23.0125 16.1181 22.9428C16.1459 22.8731 16.1879 22.8098 16.2414 22.7572C16.3571 22.6556 16.5058 22.5996 16.6597 22.5996C16.8138 22.5996 16.9625 22.6556 17.0781 22.7572C17.1314 22.8157 17.1724 22.8841 17.1987 22.9587C17.2252 23.0332 17.2365 23.1122 17.232 23.1911C17.2325 23.4446 17.1367 23.6889 16.9641 23.8748C16.7593 24.0925 16.5 24.2518 16.213 24.3362ZM16.9383 23.4729C16.9505 23.4245 16.96 23.3755 16.9667 23.3261C16.9731 23.279 16.9764 23.2316 16.9765 23.184C16.9833 23.0513 16.9524 22.9193 16.8874 22.8034C16.8637 22.7605 16.8287 22.7248 16.7863 22.7001C16.744 22.6754 16.6957 22.6625 16.6466 22.663C16.6005 22.6617 16.5548 22.6716 16.5134 22.6918C16.472 22.712 16.4361 22.742 16.4088 22.7791C16.3464 22.8771 16.3153 22.9916 16.3195 23.1077C16.3238 23.2237 16.3632 23.3358 16.4326 23.429C16.4684 23.4713 16.5133 23.505 16.564 23.5276C16.6147 23.5502 16.6698 23.5611 16.7252 23.5596C16.7648 23.5601 16.8042 23.5528 16.841 23.5382C16.8774 23.5228 16.9104 23.5007 16.9383 23.4729Z" fill="white"/>
<path d="M11.7651 23.4876H10.0538V23.5509H11.7651V23.4876Z" fill="white"/>
<path d="M19.8367 23.4876H18.1254V23.5509H19.8367V23.4876Z" fill="white"/>
<path d="M10.0799 22.1146L10.079 22.0813C10.1451 22.0842 10.2102 22.0643 10.2634 22.0249C10.2941 21.9933 10.3094 21.9195 10.3093 21.8034V21.1503C10.3093 21.0327 10.2947 20.9575 10.2653 20.9247C10.216 20.884 10.1538 20.8621 10.0897 20.8628V20.8295C10.1479 20.8295 10.2286 20.8301 10.3318 20.8313C10.435 20.8325 10.5091 20.8331 10.5541 20.8331C10.6315 20.8331 10.7108 20.8328 10.7921 20.8322C10.8734 20.8316 10.9674 20.8307 11.0742 20.8295L11.0463 21.1296H11.0193C11.0219 21.0933 11.0164 21.0569 11.003 21.0229C10.9897 20.9891 10.969 20.9586 10.9423 20.9337C10.8947 20.8978 10.8022 20.8798 10.6647 20.8798H10.483V21.4388H10.6944C10.7629 21.444 10.8313 21.4283 10.8906 21.3938C10.9123 21.3766 10.9296 21.3545 10.9414 21.3294C10.9531 21.3043 10.9588 21.2769 10.9581 21.2492L10.9878 21.2501C10.9849 21.3088 10.9826 21.364 10.9811 21.4159C10.9795 21.4677 10.9788 21.5179 10.9788 21.5663C10.9788 21.6072 10.979 21.638 10.9793 21.659C10.9797 21.6799 10.9798 21.6994 10.9797 21.7173H10.9527C10.9555 21.6892 10.9516 21.6608 10.9415 21.6345C10.9313 21.6081 10.9151 21.5845 10.8942 21.5654C10.836 21.5298 10.7679 21.5137 10.6999 21.5196H10.483V21.7942C10.483 21.9063 10.501 21.9796 10.537 22.0142C10.573 22.0487 10.6476 22.0711 10.761 22.0813V22.1145H10.7503C10.5979 22.1121 10.4848 22.1109 10.411 22.1109C10.3702 22.1109 10.3266 22.1112 10.2801 22.1118L10.0799 22.1146Z" fill="white"/>
<path d="M11.1772 21.4667C11.1731 21.3781 11.188 21.2896 11.2208 21.2072C11.2536 21.1248 11.3035 21.0503 11.3674 20.9886C11.5066 20.8648 11.6891 20.8006 11.8753 20.8098C11.9668 20.8054 12.0582 20.8195 12.1441 20.8512C12.23 20.883 12.3086 20.9317 12.3752 20.9944C12.4386 21.0591 12.4879 21.136 12.5201 21.2205C12.5524 21.305 12.5669 21.3952 12.5627 21.4856C12.5665 21.5736 12.5513 21.6614 12.5184 21.7432C12.4854 21.8249 12.4353 21.8987 12.3716 21.9596C12.2326 22.0834 12.0505 22.1478 11.8645 22.1389C11.773 22.1432 11.6818 22.1292 11.5959 22.0977C11.51 22.0661 11.4314 22.0177 11.3646 21.9553C11.3013 21.8912 11.252 21.8146 11.2197 21.7306C11.1875 21.6465 11.173 21.5567 11.1772 21.4667ZM11.3968 21.4406C11.3894 21.6059 11.4375 21.769 11.5335 21.9039C11.5727 21.9598 11.625 22.0054 11.6859 22.0367C11.7467 22.0679 11.8143 22.0839 11.8826 22.0832C11.9472 22.0851 12.0113 22.0716 12.0696 22.044C12.128 22.0164 12.1789 21.9753 12.2183 21.9241C12.308 21.8015 12.3528 21.6517 12.3451 21.5C12.3453 21.4235 12.3354 21.3474 12.3154 21.2736C12.2977 21.2056 12.2691 21.141 12.2308 21.0821C12.1889 21.015 12.1321 20.9584 12.0648 20.9168C11.9766 20.8678 11.8739 20.8515 11.7748 20.8707C11.6757 20.89 11.5866 20.9435 11.5231 21.0219C11.434 21.1429 11.3895 21.2906 11.3968 21.4406Z" fill="white"/>
<path d="M12.8009 21.6216V21.1496C12.8029 21.0952 12.7994 21.0408 12.7906 20.9871C12.7857 20.9623 12.7725 20.9398 12.7533 20.9233C12.7301 20.9055 12.7039 20.8919 12.6759 20.8834C12.6422 20.8734 12.6075 20.8675 12.5724 20.8658V20.8326C12.6114 20.8338 12.6531 20.8347 12.6974 20.8352C12.7418 20.8358 12.809 20.8361 12.899 20.8362C12.9902 20.8362 13.0584 20.8359 13.1037 20.8352C13.149 20.8346 13.1913 20.8337 13.2305 20.8326L13.2313 20.8658C13.1583 20.8597 13.0856 20.8811 13.0275 20.926C12.9924 20.9631 12.9749 21.037 12.9749 21.1476V21.6038C12.9728 21.6735 12.9796 21.7432 12.9952 21.8112C13.0073 21.8572 13.0307 21.8995 13.0631 21.9342C13.1022 21.9747 13.1503 22.0055 13.2035 22.024C13.265 22.0458 13.3299 22.0565 13.3951 22.0556C13.4708 22.0586 13.5459 22.0421 13.6133 22.0076C13.6735 21.9716 13.7209 21.9178 13.7487 21.8536C13.7688 21.8048 13.7809 21.7531 13.7843 21.7005C13.7912 21.6338 13.7946 21.5274 13.7946 21.3813C13.7965 21.2821 13.7928 21.1829 13.7834 21.0841C13.7799 21.0405 13.7669 20.9982 13.7454 20.9602C13.7233 20.9286 13.6923 20.9043 13.6563 20.8905C13.6099 20.8737 13.5608 20.8654 13.5115 20.8658V20.8326C13.5444 20.8338 13.5795 20.8347 13.6167 20.8352C13.654 20.8358 13.7103 20.8362 13.7859 20.8362C13.8614 20.8362 13.919 20.8362 13.9564 20.8352C13.9938 20.8343 14.0285 20.8338 14.0603 20.8326V20.8658H14.0567C14.0263 20.863 13.9957 20.8694 13.9691 20.8844C13.9424 20.8993 13.9209 20.922 13.9074 20.9494C13.8804 21.005 13.8669 21.1454 13.8669 21.3706C13.8669 21.3897 13.8666 21.4184 13.866 21.4567C13.8636 21.6651 13.8462 21.8067 13.8138 21.8814C13.7776 21.9666 13.7122 22.0362 13.6293 22.0777C13.5295 22.1253 13.4196 22.1483 13.309 22.1445C13.2197 22.1467 13.1307 22.1327 13.0462 22.1033C12.9791 22.0796 12.9202 22.0368 12.8771 21.9802C12.8494 21.9416 12.8297 21.898 12.8191 21.8517C12.8048 21.7759 12.7987 21.6987 12.8009 21.6216Z" fill="white"/>
<path d="M14.1477 22.1147L14.1467 22.0814C14.1843 22.0837 14.2218 22.0763 14.2557 22.0601C14.2897 22.0439 14.3189 22.0193 14.3407 21.9887C14.3751 21.9317 14.3924 21.8138 14.3924 21.6352V21.2822C14.3924 21.2661 14.3924 21.2445 14.3933 21.2177C14.3942 21.1909 14.3942 21.172 14.3942 21.1612C14.396 21.1157 14.3899 21.0703 14.3762 21.0268C14.3633 20.9939 14.3431 20.9645 14.3168 20.9408C14.2922 20.9185 14.2637 20.9011 14.2327 20.8893C14.1976 20.8759 14.1608 20.8679 14.1233 20.8655V20.8323C14.1432 20.8323 14.172 20.8329 14.2097 20.8341C14.2475 20.8353 14.2751 20.8358 14.2925 20.8359C14.3105 20.8359 14.3366 20.8353 14.3708 20.8341C14.405 20.8329 14.4299 20.8322 14.4455 20.8323L15.3669 21.8162V21.3924C15.3694 21.285 15.365 21.1776 15.3538 21.0707C15.3495 21.0261 15.3335 20.9835 15.3075 20.9471C15.2868 20.9216 15.2593 20.9024 15.2283 20.8916C15.1875 20.877 15.1449 20.8683 15.1016 20.8655V20.8323C15.134 20.8335 15.1688 20.8345 15.206 20.835C15.2432 20.8355 15.2974 20.8359 15.3689 20.8359C15.4403 20.8359 15.492 20.8359 15.5259 20.835C15.5598 20.834 15.5908 20.8335 15.619 20.8323V20.8655H15.6046C15.5741 20.8646 15.5441 20.8738 15.5192 20.8916C15.4944 20.9094 15.4762 20.9349 15.4673 20.9641C15.4345 21.0834 15.4214 21.2071 15.4282 21.3306V21.7231C15.4282 21.8145 15.429 21.8955 15.4305 21.9662C15.432 22.0368 15.434 22.1022 15.4364 22.1624H15.4255C15.3883 22.1195 15.348 22.0732 15.3045 22.0235L15.2321 21.9408L14.4527 21.1174V21.4802C14.4527 21.6588 14.4561 21.7791 14.463 21.841C14.4655 21.8873 14.4777 21.9326 14.4986 21.974C14.5171 22.002 14.5434 22.024 14.5742 22.0373C14.6214 22.0577 14.671 22.0721 14.7217 22.0802V22.1144H14.7163C14.5896 22.112 14.4951 22.1108 14.4329 22.1108C14.3981 22.1108 14.3606 22.1111 14.3204 22.1117C14.2802 22.1123 14.2227 22.1133 14.1477 22.1147Z" fill="white"/>
<path d="M15.7092 22.1146V22.0814C15.7782 22.0828 15.8457 22.0615 15.9013 22.0207C15.9408 21.9653 15.9583 21.8973 15.9504 21.8298V21.1027C15.9571 21.0408 15.9408 20.9787 15.9044 20.9282C15.8542 20.8888 15.7927 20.8669 15.729 20.8655V20.8322C15.8322 20.831 15.9419 20.8294 16.0583 20.8273C16.1746 20.8252 16.2406 20.8242 16.2563 20.8242C16.525 20.8242 16.7355 20.8826 16.888 20.9994C16.9621 21.055 17.0216 21.1277 17.0614 21.2113C17.1012 21.2948 17.1202 21.3868 17.1166 21.4793C17.1203 21.5693 17.1024 21.6588 17.0645 21.7405C17.0265 21.8222 16.9696 21.8936 16.8983 21.9488C16.7528 22.0628 16.5523 22.1198 16.2968 22.1198C16.2476 22.1198 16.1569 22.119 16.0246 22.1175C15.8924 22.1161 15.7872 22.1151 15.7092 22.1146ZM16.1276 21.7776C16.1276 21.8969 16.1468 21.9761 16.1852 22.0153C16.2236 22.0545 16.2952 22.0741 16.4002 22.0742C16.4671 22.0761 16.5336 22.0632 16.595 22.0363C16.6563 22.0094 16.7109 21.9692 16.7547 21.9187C16.8536 21.7897 16.902 21.629 16.8908 21.4669C16.8797 21.3048 16.8096 21.1523 16.694 21.0381C16.5617 20.9236 16.3783 20.8664 16.1438 20.8664H16.1276V21.7776Z" fill="white"/>
<path d="M17.1378 22.1146V22.0813C17.2075 22.0795 17.2752 22.0578 17.333 22.0189C17.3647 21.9893 17.3806 21.9257 17.3807 21.8279V21.1224C17.3807 21.0193 17.3649 20.9511 17.3335 20.918C17.2837 20.8783 17.221 20.8587 17.1576 20.8628V20.8295C17.2176 20.8309 17.2814 20.8319 17.3492 20.8324C17.417 20.8328 17.5153 20.8331 17.6444 20.8331C17.795 20.8331 17.9052 20.8328 17.975 20.8324C18.0449 20.8319 18.1077 20.8312 18.1636 20.8304C18.1581 20.8711 18.1534 20.9148 18.1496 20.9616C18.1458 21.0084 18.142 21.062 18.1384 21.1224H18.1103C18.1115 21.0875 18.1054 21.0527 18.0923 21.0203C18.0793 20.9879 18.0594 20.9586 18.0342 20.9343C17.9621 20.8925 17.8788 20.8741 17.7957 20.8818H17.5548V21.4119H17.7402C17.8124 21.4181 17.885 21.4047 17.9503 21.3733C17.9717 21.3564 17.9895 21.3352 18.0022 21.311C18.015 21.2869 18.0226 21.2603 18.0245 21.2331H18.0542C18.0542 21.2667 18.0528 21.3194 18.0502 21.3914C18.0474 21.4634 18.0461 21.5194 18.0462 21.5594V21.6655H18.0191C18.019 21.6393 18.0128 21.6135 18.0009 21.5902C17.9891 21.5669 17.9719 21.5467 17.9508 21.5311C17.8857 21.5004 17.8137 21.4873 17.742 21.4932H17.5548V21.8203C17.5548 21.9203 17.5752 21.9862 17.616 22.018C17.6568 22.0497 17.7363 22.0656 17.8545 22.0656C17.9467 22.071 18.0377 22.0423 18.1103 21.9852C18.1785 21.919 18.2222 21.8315 18.234 21.7372L18.2637 21.7408C18.2604 21.8075 18.2527 21.8741 18.2408 21.9398C18.2297 22.0004 18.2139 22.0601 18.1935 22.1182C18.1066 22.1158 18.0115 22.114 17.9082 22.1128C17.8049 22.1116 17.6925 22.111 17.5708 22.111C17.4575 22.111 17.3704 22.1113 17.3098 22.1119C17.2492 22.1125 17.1918 22.1134 17.1378 22.1146Z" fill="white"/>
<path d="M18.3443 22.1146V22.0814C18.4132 22.0828 18.4807 22.0615 18.5363 22.0207C18.5758 21.9653 18.5933 21.8973 18.5855 21.8298V21.1027C18.5922 21.0408 18.5758 20.9787 18.5395 20.9282C18.4894 20.8888 18.4278 20.8669 18.3641 20.8655V20.8322C18.4672 20.831 18.577 20.8294 18.6937 20.8273C18.8103 20.8252 18.8763 20.8242 18.8916 20.8242C19.1603 20.8242 19.3709 20.8826 19.5233 20.9994C19.5974 21.055 19.6569 21.1277 19.6967 21.2113C19.7365 21.2948 19.7554 21.3868 19.7518 21.4793C19.7556 21.5693 19.7377 21.6588 19.6998 21.7405C19.6618 21.8222 19.6049 21.8936 19.5336 21.9488C19.3882 22.0628 19.1876 22.1198 18.9321 22.1198C18.8829 22.1198 18.7922 22.119 18.6599 22.1175C18.5276 22.1161 18.4224 22.1151 18.3443 22.1146ZM18.7626 21.7776C18.7626 21.8969 18.7818 21.9761 18.8203 22.0153C18.8587 22.0545 18.9304 22.0741 19.0353 22.0742C19.1023 22.0761 19.1688 22.0632 19.2301 22.0363C19.2914 22.0094 19.346 21.9692 19.3899 21.9187C19.4888 21.7896 19.5371 21.629 19.5259 21.4669C19.5147 21.3048 19.4448 21.1523 19.3291 21.0381C19.1968 20.9236 19.0135 20.8664 18.7789 20.8664H18.7626V21.7776Z" fill="white"/>
<path d="M10.6452 18.427C10.6186 18.4024 10.6039 18.388 10.5959 18.3797C10.5885 18.3742 10.5797 18.3676 10.569 18.3595C10.498 18.3057 10.4299 18.253 10.3643 18.1949L3.68939 26.357L3.69446 26.3621C3.65408 26.3985 3.62238 26.4433 3.60153 26.4935C3.58074 26.5436 3.57129 26.5977 3.57402 26.6519C3.57668 26.7061 3.59139 26.7591 3.61712 26.8069C3.6428 26.8548 3.6788 26.8963 3.72254 26.9285C3.76634 26.9607 3.81667 26.9828 3.87004 26.9932C3.92335 27.0036 3.97838 27.002 4.03099 26.9885C4.08366 26.9751 4.13266 26.9501 4.1745 26.9154C4.21627 26.8807 4.24987 26.8372 4.27275 26.788L10.9962 18.5992C10.8647 18.5776 10.7426 18.5177 10.6452 18.427Z" fill="white"/>
<path d="M10.3364 8.26425C10.4297 8.17398 10.5479 8.11352 10.6757 8.09048L4.38924 0.4028L3.8226 0.891391L10.1598 8.60996C10.1793 8.47861 10.2413 8.35719 10.3364 8.26425Z" fill="white"/>
<path d="M19.1218 8.31578C19.2142 8.40485 19.2756 8.5212 19.2968 8.64775L25.6438 0.917211L25.0774 0.42862L18.7708 8.1408C18.9026 8.16302 19.0248 8.22392 19.1218 8.31578Z" fill="white"/>
<path d="M25.7119 26.362L25.7171 26.357L19.0688 18.227C19.0559 18.2694 19.0382 18.3103 19.0161 18.3488C18.969 18.433 18.902 18.5046 18.8209 18.5571C18.7398 18.6097 18.6471 18.6417 18.5508 18.6503C18.5273 18.6624 18.5031 18.6728 18.4781 18.6815L25.134 26.7879C25.1568 26.8372 25.1904 26.8807 25.2322 26.9154C25.274 26.9501 25.323 26.9751 25.3757 26.9886C25.4283 27.002 25.4833 27.0036 25.5367 26.9932C25.5901 26.9829 25.6404 26.9608 25.6842 26.9285C25.728 26.8963 25.764 26.8548 25.7896 26.8069C25.8154 26.7591 25.8301 26.7061 25.8327 26.6519C25.8355 26.5977 25.826 26.5435 25.8052 26.4934C25.7843 26.4432 25.7523 26.3984 25.7119 26.362Z" fill="white"/>
</svg>
